<?xml version="1.0" standalone="no"?>
<!DOCTYPE svg PUBLIC "-//W3C//DTD SVG 20010904//EN"
 "http://www.w3.org/TR/2001/REC-SVG-20010904/DTD/svg10.dtd">
<svg version="1.0" xmlns="http://www.w3.org/2000/svg"
 width="82.000000pt" height="68.000000pt" viewBox="0 0 82.000000 68.000000"
 preserveAspectRatio="xMidYMid meet">

<g transform="translate(0.000000,68.000000) scale(0.100000,-0.100000)"
fill="#000000" stroke="none">
<path d="M455 620 c-3 -5 -3 -14 0 -20 3 -5 2 -10 -3 -10 -6 0 -6 -15 0 -40
13 -48 25 -51 33 -7 8 40 6 53 -7 49 -5 -1 -7 6 -3 18 6 20 -9 28 -20 10z"/>
<path d="M532 618 c-15 -15 -15 -48 -1 -85 l11 -28 14 39 c15 41 10 61 -12 52
-12 -4 -12 -2 -4 14 12 23 9 25 -8 8z"/>
<path d="M220 548 c0 -63 18 -85 52 -67 14 8 18 22 18 67 l0 57 -35 0 -35 0 0
-57z"/>
<path d="M368 549 l-3 -62 -54 -30 -54 -30 -49 27 c-28 16 -54 24 -59 19 -4
-4 15 -21 46 -37 l55 -28 0 -62 0 -61 -60 -33 c-78 -43 -69 -60 9 -18 l60 31
56 -30 56 -30 -3 -64 -3 -64 -57 -32 c-32 -17 -55 -34 -52 -38 6 -5 85 33 110
54 7 6 23 8 36 4 21 -7 22 -6 5 7 -15 11 -18 25 -15 73 l3 60 58 30 57 30 55
-30 56 -30 -3 -64 -3 -64 -52 -29 -52 -29 -43 21 c-42 21 -43 21 -18 1 39 -32
68 -36 109 -15 66 35 71 43 71 114 l0 65 60 33 c78 43 78 59 1 18 l-60 -31
-55 30 -56 30 0 62 0 63 55 31 55 31 -2 71 -1 72 -6 -63 -6 -64 -55 -30 -55
-31 -57 32 -58 33 0 59 c0 78 -18 76 -22 -2z m71 -112 l54 -32 0 -60 0 -60
-55 -32 -56 -32 -56 30 -56 31 0 63 0 63 53 30 c28 17 54 31 57 31 3 1 29 -14
59 -32z"/>
<path d="M340 386 c0 -24 3 -27 10 -16 6 10 10 11 10 3 0 -7 7 -13 15 -13 10
0 15 10 15 29 0 24 -4 29 -25 29 -21 0 -25 -5 -25 -32z"/>
<path d="M400 390 c0 -16 2 -30 4 -30 2 0 6 14 8 30 3 17 1 30 -4 30 -4 0 -8
-13 -8 -30z"/>
<path d="M310 299 c0 -19 5 -29 15 -29 8 0 15 6 15 13 0 8 4 7 10 -3 7 -11 10
-8 10 16 0 27 -4 32 -25 32 -21 0 -25 -5 -25 -29z"/>
<path d="M378 300 c2 -16 5 -30 7 -30 2 0 5 14 7 30 3 19 0 30 -7 30 -7 0 -10
-11 -7 -30z"/>
<path d="M411 300 c0 -27 2 -31 8 -15 l8 20 5 -20 c4 -13 6 -7 7 15 0 23 -2
30 -8 21 -7 -11 -9 -11 -14 0 -3 8 -5 -2 -6 -21z"/>
<path d="M630 416 c0 -2 15 -6 34 -8 19 -2 32 0 30 4 -5 8 -64 12 -64 4z"/>
<path d="M60 400 c0 -5 5 -10 10 -10 6 0 10 -9 10 -20 0 -17 7 -20 51 -20 42
0 52 3 56 20 3 11 9 20 14 20 5 0 9 5 9 10 0 6 -32 10 -75 10 -43 0 -75 -4
-75 -10z"/>
<path d="M575 360 c10 -11 24 -20 31 -20 14 0 7 -41 -10 -52 -6 -4 5 -7 24 -7
19 0 29 3 23 6 -15 5 -18 43 -4 43 12 0 41 29 41 41 0 5 -28 9 -62 9 -60 0
-61 0 -43 -20z"/>
<path d="M214 214 c-33 -16 -50 -57 -37 -91 10 -25 42 -58 49 -51 3 4 -4 16
-15 27 -59 59 18 143 87 95 30 -21 30 -77 0 -98 -12 -9 -19 -19 -15 -22 4 -4
19 5 33 19 15 15 23 27 19 27 -4 0 -2 7 6 16 10 13 10 17 0 24 -8 4 -11 12 -8
17 3 5 -2 17 -12 25 -29 25 -72 30 -107 12z"/>
<path d="M500 190 c-11 -11 -31 -20 -43 -20 -20 0 -24 -5 -25 -30 l-1 -30 75
0 c71 0 75 1 69 20 -4 11 -2 20 4 20 6 0 11 5 11 10 0 6 -7 10 -15 10 -8 0
-15 4 -15 10 0 5 -9 14 -20 20 -15 8 -24 6 -40 -10z m37 -16 c-3 -3 -12 -4
-19 -1 -8 3 -5 6 6 6 11 1 17 -2 13 -5z"/>
<path d="M251 177 c-1 -14 -6 -17 -23 -12 -22 7 -22 6 -4 -8 19 -14 19 -14 0
-26 -18 -11 -18 -12 3 -6 15 4 23 1 26 -12 3 -13 5 -11 6 7 1 19 4 21 13 12
16 -16 33 -15 19 1 -8 10 -7 17 2 26 10 11 8 12 -10 7 -16 -5 -23 -2 -26 11
-4 17 -5 17 -6 0z"/>
<path d="M240 70 c0 -5 7 -10 15 -10 8 0 15 5 15 10 0 6 -7 10 -15 10 -8 0
-15 -4 -15 -10z"/>
<path d="M180 56 c0 -3 14 -12 30 -21 17 -9 30 -13 30 -11 0 3 -13 12 -30 21
-16 9 -30 13 -30 11z"/>
</g>
</svg>
