<svg width="172" height="35" viewBox="0 0 172 35" fill="none" xmlns="http://www.w3.org/2000/svg">
<path fill-rule="evenodd" clip-rule="evenodd" d="M47.8691 19.2769C47.8691 19.5869 47.9621 19.6817 48.2721 19.6817C53.7434 19.6817 52.8427 20.3544 52.8427 17.2605V8.52024C53.0615 8.86482 53.1509 9.50293 53.2457 9.86574C53.366 10.3252 53.5137 10.7937 53.6231 11.2368L55.8017 19.6817H60.5073C61.036 18.5805 63.3187 9.2331 63.6012 8.79007C63.6012 12.5677 63.7343 15.8986 63.7343 19.6817H68.7098C69.0197 19.6817 69.1127 19.5869 69.1127 19.2769V5.96598C69.1127 5.31876 67.8456 5.56124 67.2312 5.56306H60.2393C60.1372 6.78641 58.4909 11.977 58.4909 12.9578H58.2211C58.2211 12.2577 57.9695 11.6889 57.8182 11.0763C57.5228 9.88215 56.4891 6.25769 56.4745 5.56306H47.8691V19.2769Z" fill="#027FD5"/>
<path fill-rule="evenodd" clip-rule="evenodd" d="M71.3985 17.7985C72.425 19.0911 73.0594 19.7511 74.2226 20.8906C70.3028 23.3956 69.4733 22.1321 71.3985 17.7985ZM76.4998 22.2324C76.7277 22.1832 80.7423 24.2652 85.9201 21.9662C91.1234 19.6563 93.8709 12.8978 91.2984 7.71452C88.4525 14.4329 76.8954 22.1431 76.4998 22.2324ZM92.261 6.43831C92.0277 6.80658 91.6157 7.41917 91.2984 7.71452C91.1325 7.09282 90.6512 6.13566 90.3577 5.69628C86.1224 12.1211 82.405 15.0108 74.2226 20.8906C74.9027 21.5068 75.7596 21.9608 76.4998 22.2324C75.7833 22.4001 74.8534 23.0711 73.4186 23.4485C69.1615 24.5697 68.5508 22.4348 70.4104 18.6936C70.7623 17.9862 70.7933 17.7 71.2636 17.5305C66.1916 7.9406 74.8279 -1.4159 83.9055 0.988858C86.1936 1.59597 87.5172 2.52032 89.0468 4.04996L90.3577 5.69628C90.9374 4.83209 93.0231 2.43645 92.3449 1.36625C91.5901 0.172079 89.2856 1.37902 88.024 1.78741C87.3057 2.01895 87.3804 2.08458 86.7277 1.93144C87.251 0.835712 97.6613 -3.62558 92.261 6.43831ZM71.2636 17.5305L71.3985 17.7985L71.2636 17.5305Z" fill="#FF5300"/>
<path fill-rule="evenodd" clip-rule="evenodd" d="M20.4377 12.5549C20.4377 10.5476 20.8425 8.65516 22.8589 8.65516C24.7295 8.65516 25.1433 10.8393 25.1433 12.42C25.1433 15.8384 24.4888 16.3198 22.5891 16.3198C20.817 16.3198 20.4377 14.338 20.4377 12.5549ZM14.1187 12.5549C14.1187 14.9907 15.4113 17.6981 17.7267 18.8959C20.1278 20.1356 23.5918 20.2304 26.1953 19.5231C28.7095 18.8394 30.5819 17.1092 31.1197 14.4966C31.4278 12.9961 31.3895 10.8211 30.7058 9.4136C29.1598 6.23582 26.3393 5.15833 22.4542 5.15833C18.3283 5.15833 15.3438 7.01249 14.3812 10.801C14.2991 11.1292 14.1187 12.1757 14.1187 12.5549Z" fill="#027FD5"/>
<path fill-rule="evenodd" clip-rule="evenodd" d="M92.644 9.73102C92.644 10.938 92.7625 11.6818 93.5447 12.4603C95.3004 14.2014 98.2102 14.2342 99.6249 14.7174C100.227 14.9234 100.29 14.9726 100.578 15.5123C99.9422 16.7138 98.5894 16.32 96.006 16.32C95.1782 16.32 93.3514 15.7876 92.779 15.5123V19.2771C94.2229 19.3975 94.8719 19.9499 98.2922 19.9499C100.733 19.9499 103.432 19.7183 105.069 18.2562L105.465 17.8441C105.94 17.3045 106.261 16.5424 106.36 15.7238V14.6536C106.221 13.5323 105.632 12.4403 104.436 11.7876C104.028 11.5651 103.742 11.4758 103.286 11.3245C102.475 11.0565 101.559 10.8814 100.677 10.7064C99.6523 10.5022 98.9121 10.4566 98.4253 9.73102C98.9321 7.55963 104.892 9.31534 105.419 9.3281C105.419 5.07283 105.678 5.65442 104.524 5.51586C101.355 5.13664 95.4845 4.48577 93.2913 7.41925C92.861 7.99719 92.644 8.75563 92.644 9.73102Z" fill="#027FD5"/>
<path fill-rule="evenodd" clip-rule="evenodd" d="M32.2705 9.4612C32.2705 11.7329 32.843 12.876 35.2441 13.7493C37.3736 14.5223 39.2587 14.2908 40.2049 15.3774C39.4975 16.7119 38.812 16.32 35.7673 16.32C34.719 16.32 33.0891 15.8751 32.4054 15.5123V19.2771L34.6716 19.7019C38.5076 20.351 45.9862 20.4093 45.9862 14.9745C45.9862 12.907 44.5623 11.8769 43.0126 11.3591C42.1138 11.0583 41.2405 10.8924 40.3034 10.7064C39.4173 10.5314 38.0536 10.3855 38.0536 9.59611C38.0536 8.33083 41.9023 8.69729 42.8412 8.84314C43.6398 8.96529 44.3581 9.3117 45.0454 9.3281V5.69636C41.4447 4.8577 32.2705 4.3308 32.2705 9.4612Z" fill="#027FD5"/>
<path fill-rule="evenodd" clip-rule="evenodd" d="M0 12.0172C0 14.4657 0.836833 16.7082 2.74204 18.1485C5.58254 20.298 9.98913 20.1849 13.3109 19.4119V15.5122C12.0675 15.6161 9.46224 16.8139 7.3109 15.1931C5.55519 13.8677 4.77852 9.05816 10.6218 9.05816C11.7084 9.05816 12.3611 9.44102 13.3109 9.46108C13.3109 4.92686 13.8561 5.72541 11.5097 5.34801C8.64911 4.88675 5.04288 5.36807 2.85872 6.94146C1.60986 7.84028 0 9.96062 0 12.0172Z" fill="#027FD5"/>
<path d="M99.6815 24.1139L99.2202 26.814H97.3095L96.6696 30.5715C96.6058 30.9398 96.573 31.1713 96.573 31.2716C96.573 31.7858 96.903 32.0428 97.5666 32.0428C97.8528 32.0428 98.1883 32.0009 98.5675 31.9152L98.1062 34.6791C97.3515 34.8359 96.6277 34.9143 95.9349 34.9143C95.0743 34.9143 94.438 34.8086 94.0205 34.5898C93.6049 34.3765 93.2657 34.0684 93.0014 33.6727C92.7407 33.2753 92.6094 32.7502 92.6094 32.103C92.6094 31.8332 92.6732 31.3227 92.7972 30.5788L93.4298 26.814H91.9658L92.4161 24.1139H93.8984L94.4617 20.9944L98.3177 20.9197L97.7708 24.1139H99.6815ZM111.115 30.1795H103.846C103.811 30.4676 103.793 30.6827 103.793 30.8213C103.793 31.2862 103.939 31.6508 104.236 31.9116C104.531 32.1723 104.907 32.2999 105.361 32.2999C106.218 32.2999 106.825 31.8496 107.178 30.9507L110.737 31.525C110.276 32.5606 109.528 33.4011 108.5 34.0392C107.472 34.6791 106.329 35 105.071 35C103.496 35 102.214 34.5551 101.235 33.6581C100.252 32.7611 99.7635 31.536 99.7635 29.9899C99.7635 28.3072 100.341 26.8632 101.499 25.6599C102.657 24.4566 104.172 23.8568 106.039 23.8568C107.625 23.8568 108.883 24.3235 109.822 25.257C110.761 26.1886 111.229 27.432 111.229 28.9781C111.229 29.3245 111.189 29.7256 111.115 30.1795ZM107.297 28.1431C107.333 27.9243 107.35 27.7566 107.35 27.6381C107.35 27.2643 107.237 26.9361 107.003 26.6535C106.772 26.3746 106.447 26.236 106.028 26.236C105.587 26.236 105.186 26.4038 104.825 26.7429C104.464 27.082 104.243 27.5505 104.161 28.1431H107.297ZM118.402 20.3837L116.023 34.6791H112.001L114.38 20.3837H118.402ZM129.846 30.1795H122.577C122.542 30.4676 122.524 30.6827 122.524 30.8213C122.524 31.2862 122.67 31.6508 122.967 31.9116C123.264 32.1723 123.638 32.2999 124.092 32.2999C124.949 32.2999 125.556 31.8496 125.91 30.9507L129.468 31.525C129.007 32.5606 128.261 33.4011 127.231 34.0392C126.203 34.6791 125.06 35 123.802 35C122.227 35 120.945 34.5551 119.966 33.6581C118.983 32.7611 118.495 31.536 118.495 29.9899C118.495 28.3072 119.073 26.8632 120.23 25.6599C121.388 24.4566 122.903 23.8568 124.77 23.8568C126.356 23.8568 127.614 24.3235 128.553 25.257C129.492 26.1886 129.961 27.432 129.961 28.9781C129.961 29.3245 129.922 29.7256 129.846 30.1795ZM126.028 28.1431C126.065 27.9243 126.081 27.7566 126.081 27.6381C126.081 27.2643 125.968 26.9361 125.735 26.6535C125.503 26.3746 125.178 26.236 124.759 26.236C124.318 26.236 123.917 26.4038 123.556 26.7429C123.195 27.082 122.974 27.5505 122.892 28.1431H126.028ZM137.933 30.5861L141.128 31.3719C140.555 32.7356 139.806 33.6818 138.876 34.2106C137.948 34.7356 136.987 35 135.997 35C134.537 35 133.343 34.5369 132.418 33.6107C131.494 32.6864 131.033 31.4959 131.033 30.0465C131.033 28.3892 131.58 26.9288 132.668 25.6563C133.762 24.3855 135.208 23.7492 137.009 23.7492C138.313 23.7492 139.416 24.1412 140.324 24.927C141.23 25.7128 141.684 26.7246 141.684 27.9608L138.105 28.3783C138.105 27.2351 137.716 26.6645 136.94 26.6645C136.276 26.6645 135.804 27.1312 135.523 28.0683C135.244 29 135.104 29.8186 135.104 30.515C135.104 31.5469 135.498 32.0647 136.28 32.0647C137.047 32.0647 137.598 31.5724 137.933 30.5861ZM147.47 35C145.995 35 144.759 34.5606 143.757 33.6855C142.752 32.8104 142.252 31.618 142.252 30.103C142.252 28.2816 142.834 26.7848 143.999 25.6143C145.159 24.442 146.628 23.8568 148.402 23.8568C150.025 23.8568 151.314 24.3126 152.267 25.2315C153.221 26.1503 153.696 27.2825 153.696 28.628C153.696 30.628 153.082 32.1941 151.857 33.3154C150.632 34.4403 149.171 35 147.47 35ZM147.645 32.4293C148.389 32.4293 148.896 31.886 149.16 30.7958C149.428 29.7073 149.56 28.7921 149.56 28.061C149.56 26.9416 149.149 26.3855 148.324 26.3855C147.596 26.3855 147.089 26.9416 146.81 28.0574C146.528 29.1713 146.387 30.0793 146.387 30.7867C146.387 31.8824 146.807 32.4293 147.645 32.4293ZM156.194 24.1139H159.793L159.529 25.7347C160.307 24.4384 161.394 23.7912 162.783 23.7912C164.109 23.7912 165.002 24.4384 165.463 25.7347C166.149 24.4821 167.202 23.8568 168.63 23.8568C169.567 23.8568 170.316 24.1175 170.878 24.6426C171.441 25.1677 171.724 25.875 171.724 26.7629C171.724 27.0455 171.691 27.3919 171.627 27.7967L170.47 34.6791H166.448L167.505 28.4038C167.556 28.0811 167.578 27.835 167.578 27.6636C167.578 27.0528 167.295 26.7502 166.73 26.7502C166.388 26.7502 166.101 26.8778 165.877 27.1312C165.649 27.3846 165.472 27.8787 165.348 28.6134L164.331 34.6791H160.426L161.483 28.4038C161.547 28.0173 161.576 27.7456 161.576 27.5852C161.576 27.2643 161.487 27.0346 161.305 26.896C161.122 26.7575 160.933 26.6845 160.738 26.6845C160.544 26.6845 160.298 26.7666 160.005 26.9325C159.711 27.0966 159.498 27.5852 159.365 28.4038L158.307 34.6791H154.426L156.194 24.1139Z" fill="#027FD5"/>
</svg>
