<?xml version="1.0" standalone="no"?>
<!DOCTYPE svg PUBLIC "-//W3C//DTD SVG 20010904//EN"
 "http://www.w3.org/TR/2001/REC-SVG-20010904/DTD/svg10.dtd">
<svg version="1.0" xmlns="http://www.w3.org/2000/svg"
 width="496.000000pt" height="503.000000pt" viewBox="0 0 496.000000 503.000000"
 preserveAspectRatio="xMidYMid meet">
<metadata>
Created by potrace 1.16, written by Peter Selinger 2001-2019
</metadata>
<g transform="translate(0.000000,503.000000) scale(0.100000,-0.100000)"
fill="#fff" stroke="none">
<path d="M2329 4983 c-26 -3 -38 -10 -42 -24 -4 -14 -14 -19 -37 -19 -18 0
-61 -5 -96 -12 -55 -10 -66 -9 -81 4 -26 24 -87 17 -91 -10 -3 -22 -64 -52
-106 -52 -12 0 -63 -13 -112 -30 -75 -25 -90 -27 -97 -15 -10 18 -48 20 -65 3
-7 -7 -45 -24 -85 -38 -64 -24 -73 -30 -77 -56 -4 -23 -11 -30 -32 -32 -15 -2
-35 1 -45 6 -13 7 -27 4 -48 -9 -16 -10 -37 -22 -45 -26 -8 -4 -50 -31 -94
-60 -43 -29 -82 -53 -86 -53 -9 0 -20 -25 -20 -48 -1 -15 -41 -50 -99 -87 -8
-5 -21 -16 -27 -24 -7 -9 -20 -12 -38 -7 -32 8 -78 -31 -70 -60 3 -14 -21 -45
-83 -110 -48 -51 -95 -102 -103 -114 -11 -16 -22 -20 -41 -16 -22 4 -31 -2
-59 -40 -19 -24 -37 -44 -42 -44 -4 0 -8 -5 -8 -10 0 -6 -10 -24 -21 -40 -15
-20 -20 -36 -15 -54 8 -31 -24 -72 -48 -63 -14 5 -56 -38 -56 -58 0 -3 -11
-21 -25 -39 -14 -18 -25 -38 -25 -44 0 -6 -3 -12 -7 -14 -5 -1 -16 -21 -27
-43 -10 -22 -25 -53 -33 -68 -13 -25 -13 -30 2 -46 15 -17 15 -21 -5 -55 -11
-20 -20 -45 -20 -54 0 -10 -7 -27 -15 -38 -8 -10 -15 -26 -15 -36 0 -10 -7
-15 -18 -14 -9 2 -25 -8 -34 -23 -23 -33 -23 -71 -2 -71 12 0 15 -6 10 -22
-25 -88 -49 -178 -52 -203 -3 -16 -7 -45 -10 -62 -3 -18 -11 -33 -18 -33 -26
0 -39 -31 -46 -113 -5 -45 -10 -89 -12 -97 -1 -8 7 -19 20 -25 19 -8 22 -15
18 -39 -4 -16 -16 -36 -27 -44 -21 -15 -21 -20 -16 -161 7 -156 13 -191 31
-191 12 0 57 -187 49 -207 -3 -7 -11 -13 -19 -13 -25 0 -9 -94 16 -96 8 -1 20
-2 26 -3 6 0 14 -24 17 -52 4 -28 11 -56 16 -63 5 -6 9 -14 9 -19 1 -20 16
-75 28 -98 21 -42 24 -78 8 -87 -12 -7 -10 -19 14 -78 48 -116 65 -144 84
-138 11 3 23 -4 33 -20 16 -23 16 -27 1 -41 -20 -20 -21 -14 9 -66 13 -24 32
-59 41 -76 9 -18 20 -33 25 -33 5 0 9 -5 9 -11 0 -7 16 -34 35 -60 19 -27 35
-54 35 -59 0 -7 6 -7 18 -1 22 12 27 8 77 -54 22 -27 46 -55 55 -62 8 -6 16
-25 16 -42 3 -57 4 -61 19 -61 8 0 15 -7 15 -16 0 -13 6 -15 27 -9 23 5 33 0
68 -37 47 -49 149 -139 171 -151 9 -5 12 -17 8 -31 -6 -25 27 -66 52 -66 7 0
17 -6 21 -13 4 -7 24 -25 44 -40 28 -21 42 -25 70 -21 39 7 55 -6 61 -45 2
-15 18 -32 48 -48 25 -14 59 -34 77 -44 17 -10 34 -15 37 -12 3 4 6 1 6 -5 0
-7 9 -12 19 -12 11 0 21 -3 23 -8 6 -13 88 -41 94 -31 12 20 104 0 104 -23 0
-4 9 -8 20 -8 37 0 90 -28 90 -47 0 -12 12 -23 32 -31 27 -10 35 -9 49 4 19
18 40 16 154 -11 33 -7 86 -19 118 -26 44 -9 57 -16 57 -30 0 -22 17 -26 133
-32 79 -4 89 -3 100 14 17 27 77 27 77 -1 0 -19 15 -25 60 -22 8 0 73 4 145 7
71 4 133 9 138 12 4 2 7 12 7 22 0 14 19 20 107 34 100 16 109 16 120 1 10
-14 17 -14 47 -4 23 7 36 18 36 29 0 13 26 25 108 50 59 18 123 42 143 52 45
24 65 24 78 2 9 -17 10 -17 28 0 11 9 28 17 39 17 19 0 105 40 130 61 8 6 14
22 14 34 0 13 7 26 16 29 24 9 54 7 54 -4 0 -11 49 7 65 24 10 11 19 16 94 58
20 11 38 23 41 27 3 3 25 19 48 34 34 22 43 33 39 49 -6 21 10 39 95 110 24
21 47 41 51 44 4 4 13 1 21 -5 12 -10 20 -9 40 6 25 18 30 29 27 69 -1 12 17
39 49 70 27 27 53 57 56 67 3 9 12 17 20 17 8 0 14 5 14 11 0 6 14 29 31 50
24 31 34 37 45 28 15 -13 41 9 63 53 8 16 18 28 23 28 4 0 8 9 8 20 0 11 4 20
10 20 5 0 16 14 25 30 12 23 13 35 5 51 -15 27 12 73 38 65 11 -4 24 5 39 27
13 18 23 37 23 41 0 4 9 21 21 37 11 16 17 29 14 29 -3 0 3 13 14 28 11 16 23
41 27 58 4 16 11 35 17 42 5 7 7 27 4 45 -4 29 8 107 26 157 3 8 8 27 11 43 4
17 13 27 24 27 26 0 42 20 42 52 0 18 -5 28 -15 28 -18 0 -18 -1 -1 69 8 31
20 97 27 146 13 97 23 125 42 125 8 0 17 29 25 78 16 106 15 129 -8 149 -27
23 -26 68 2 87 22 16 22 17 10 124 -7 59 -12 131 -12 159 0 47 -2 52 -29 63
-27 11 -30 18 -36 68 -3 32 -14 74 -23 96 -15 35 -15 39 1 47 11 6 17 22 17
42 0 38 -7 49 -40 63 -16 8 -26 21 -28 37 -1 14 -10 48 -21 75 -11 27 -17 53
-14 56 4 3 0 6 -7 6 -7 0 -11 3 -7 6 3 3 -5 31 -19 62 -22 50 -23 58 -9 68 20
15 19 44 -5 74 -11 14 -20 31 -20 38 0 6 -4 12 -9 12 -5 0 -12 14 -16 30 -4
17 -11 30 -16 30 -5 0 -9 7 -9 15 0 10 -10 15 -27 15 -18 1 -35 10 -47 27 -18
24 -18 27 -3 38 21 15 22 31 2 39 -8 3 -15 14 -15 25 0 11 -5 23 -10 26 -23
14 -120 157 -114 167 4 7 3 8 -5 4 -6 -4 -14 0 -17 8 -4 10 -18 16 -38 16 -26
0 -41 12 -94 71 -50 57 -60 73 -52 88 12 24 -43 82 -62 63 -8 -8 -19 -5 -42
13 -40 32 -94 77 -111 93 -7 6 -18 12 -23 12 -6 0 -12 4 -14 8 -1 4 -20 21
-41 36 -28 22 -37 35 -35 54 2 20 -4 29 -27 41 -16 9 -32 18 -35 22 -3 3 -32
22 -65 42 -55 33 -61 35 -73 19 -11 -15 -15 -15 -40 -2 -16 10 -28 26 -30 42
-2 18 -14 31 -40 44 -20 10 -45 25 -54 33 -10 8 -18 11 -18 7 0 -4 -17 2 -37
12 -21 11 -57 25 -80 32 -24 7 -43 17 -43 22 0 15 -29 8 -38 -8 -9 -16 -13
-16 -58 -1 -27 9 -71 23 -99 30 -38 9 -51 18 -53 34 -4 27 -80 41 -98 17 -15
-19 -65 -8 -71 16 -3 11 -26 22 -71 33 -117 28 -130 29 -152 7 -25 -25 -80
-24 -80 1 0 11 -12 18 -37 23 -39 6 -211 6 -274 -1z m461 -88 c19 -3 46 -8 60
-11 14 -3 39 -7 55 -10 228 -33 530 -139 740 -259 33 -19 74 -41 90 -50 39
-20 63 -36 90 -60 37 -32 54 -45 59 -45 3 0 33 -21 67 -47 33 -27 68 -52 76
-58 9 -5 34 -28 57 -51 23 -22 53 -49 69 -59 15 -9 27 -23 27 -29 0 -7 16 -26
35 -43 19 -17 35 -34 35 -38 0 -4 25 -31 55 -60 30 -29 55 -56 55 -60 0 -7 19
-31 85 -107 8 -10 15 -22 15 -28 0 -5 4 -10 8 -10 5 0 16 -15 25 -32 21 -40
63 -114 85 -148 20 -32 77 -149 104 -215 11 -27 28 -68 38 -90 46 -104 117
-362 121 -444 2 -22 6 -41 9 -41 4 0 7 -6 7 -12 0 -7 3 -38 6 -68 11 -98 20
-275 13 -269 -3 3 -9 33 -12 65 -6 77 -31 270 -38 309 -17 80 -29 134 -42 179
-8 26 -14 59 -14 72 0 12 -4 25 -9 28 -5 3 -12 23 -17 43 -4 21 -8 40 -9 43
-1 3 -5 17 -9 33 -5 15 -12 27 -17 27 -5 0 -9 11 -9 23 0 13 -6 37 -14 53 -7
16 -20 44 -27 62 -8 17 -17 32 -21 32 -5 0 -8 7 -8 15 0 14 -49 114 -61 125
-3 3 -15 26 -28 52 -12 25 -28 49 -36 52 -8 3 -15 12 -15 19 0 8 -13 33 -30
55 -16 23 -30 45 -30 50 0 4 -16 23 -35 42 -19 19 -35 39 -35 44 0 6 -16 26
-35 45 -19 19 -35 40 -35 47 0 8 -5 14 -10 14 -11 0 -59 50 -60 62 0 4 -28 33
-62 65 -34 32 -75 70 -90 84 -15 15 -34 29 -43 32 -8 4 -15 11 -15 17 0 5 -4
10 -10 10 -5 0 -18 7 -27 16 -31 28 -206 149 -253 175 -25 13 -49 29 -55 35
-15 16 -84 54 -99 54 -7 0 -24 8 -37 18 -13 10 -49 29 -79 41 -71 29 -140 60
-162 72 -10 5 -27 9 -39 9 -11 0 -30 5 -42 11 -11 7 -37 14 -56 16 -20 3 -63
13 -95 24 -33 10 -68 19 -78 19 -10 0 -51 6 -91 14 -40 8 -94 17 -122 20 -27
4 -79 10 -115 14 -111 12 -410 5 -461 -12 -8 -3 -36 -7 -64 -10 -27 -3 -66
-10 -85 -16 -19 -5 -50 -10 -69 -10 -56 0 -23 20 50 30 35 6 75 12 89 15 14 4
57 9 95 12 39 3 72 8 75 10 7 7 467 -4 510 -12z m-100 -59 c86 -4 229 -26 335
-51 11 -3 38 -9 60 -14 74 -17 140 -39 215 -70 41 -17 82 -31 90 -31 8 0 29
-9 45 -20 17 -11 36 -20 43 -20 7 0 20 -7 28 -15 9 -8 24 -15 35 -15 10 0 19
-4 19 -9 0 -5 15 -16 33 -25 17 -9 44 -25 59 -34 14 -9 56 -35 92 -57 36 -21
66 -43 66 -47 0 -4 7 -8 15 -8 8 0 15 -3 15 -8 0 -4 16 -16 35 -26 19 -11 35
-23 35 -28 0 -4 7 -8 15 -8 8 0 15 -5 15 -10 0 -6 8 -14 17 -17 40 -15 333
-309 333 -334 0 -3 15 -21 33 -40 19 -19 44 -52 57 -74 13 -22 28 -43 33 -46
8 -6 23 -29 47 -74 6 -11 19 -33 30 -50 11 -16 36 -64 57 -105 21 -41 41 -76
45 -78 4 -2 8 -8 8 -13 0 -10 25 -70 56 -133 8 -16 14 -35 14 -42 0 -7 6 -28
14 -46 39 -94 58 -163 81 -288 7 -41 16 -91 19 -110 33 -181 36 -614 4 -765
-5 -27 -14 -75 -18 -105 -8 -53 -26 -128 -37 -160 -3 -8 -7 -21 -9 -29 -1 -7
-7 -18 -13 -24 -6 -6 -11 -22 -11 -36 0 -15 -7 -35 -15 -45 -8 -11 -15 -29
-15 -40 0 -12 -9 -34 -20 -51 -11 -16 -20 -38 -20 -48 0 -11 -6 -31 -14 -45
-8 -15 -19 -38 -25 -52 -11 -25 -18 -39 -40 -75 -6 -11 -17 -32 -24 -47 -6
-16 -14 -28 -18 -28 -4 0 -18 -21 -30 -47 -25 -51 -55 -100 -92 -147 -12 -16
-26 -39 -30 -52 -5 -13 -12 -24 -17 -24 -5 0 -18 -16 -30 -35 -12 -19 -38 -52
-58 -74 -21 -21 -56 -58 -78 -82 -48 -50 -87 -89 -148 -145 -49 -44 -251 -194
-264 -194 -4 -1 -22 -14 -41 -30 -19 -16 -38 -27 -43 -24 -4 3 -8 0 -8 -5 0
-6 -6 -11 -12 -11 -7 0 -24 -9 -38 -20 -14 -11 -32 -20 -42 -20 -9 0 -18 -3
-20 -7 -4 -10 -110 -63 -124 -63 -6 0 -17 -7 -24 -15 -7 -8 -20 -15 -29 -15
-9 -1 -34 -9 -56 -20 -22 -11 -45 -19 -52 -20 -6 0 -24 -5 -40 -12 -74 -30
-226 -69 -413 -105 -130 -25 -599 -24 -703 1 -38 9 -81 16 -98 16 -16 0 -55 9
-86 20 -32 11 -73 21 -90 22 -18 1 -33 6 -33 10 0 4 -17 10 -37 13 -21 4 -52
13 -70 21 -17 8 -36 14 -41 14 -9 0 -39 14 -125 56 -16 8 -36 14 -45 14 -8 0
-23 6 -31 14 -9 7 -54 33 -102 58 -47 25 -105 58 -129 74 -24 16 -56 37 -71
46 -16 9 -37 26 -49 38 -11 11 -23 20 -28 20 -4 0 -25 16 -47 35 -22 19 -59
52 -83 72 -24 21 -87 83 -140 137 -140 144 -142 146 -142 156 0 6 -5 10 -10
10 -6 0 -13 8 -17 18 -3 9 -21 34 -40 55 -18 20 -33 43 -33 50 0 7 -8 17 -19
24 -10 6 -29 32 -41 57 -12 25 -26 46 -30 46 -5 0 -11 13 -15 29 -3 16 -12 34
-19 40 -8 6 -21 33 -31 59 -10 26 -26 59 -36 74 -11 14 -19 30 -19 36 0 5 -9
31 -21 57 -32 72 -70 176 -79 215 -4 19 -15 55 -23 80 -26 77 -38 130 -63 290
-20 128 -24 193 -24 375 0 121 2 231 4 245 3 14 10 52 15 85 6 33 18 94 26
135 9 41 19 92 22 113 3 20 9 37 15 37 5 0 6 5 3 10 -4 6 -2 16 3 23 6 7 16
35 23 62 6 28 15 55 19 60 3 6 15 33 25 60 20 57 124 270 161 330 13 22 27 48
30 58 4 9 9 17 13 17 4 0 15 16 24 35 9 19 21 35 26 35 5 0 12 8 15 18 11 29
32 62 65 99 17 19 31 37 31 40 0 3 16 20 35 39 19 18 35 36 35 41 0 16 218
222 295 278 39 29 48 36 79 63 8 6 19 12 24 12 5 0 17 9 27 20 10 11 22 20 27
20 4 0 30 16 57 35 26 19 55 35 64 35 8 0 17 6 20 14 3 8 19 17 36 21 17 4 31
10 31 15 0 5 10 12 23 16 24 7 155 67 199 90 14 8 40 14 56 14 16 0 32 6 35
14 3 8 25 17 49 21 24 4 55 14 70 21 15 8 36 14 46 14 11 0 42 6 68 14 192 55
376 68 744 52z m-770 -5 c-8 -5 -64 -23 -125 -40 -109 -31 -134 -40 -188 -67
-16 -8 -34 -14 -40 -14 -7 0 -34 -11 -62 -25 -27 -13 -55 -25 -61 -25 -7 0
-14 -6 -17 -14 -3 -8 -19 -17 -36 -21 -17 -4 -31 -10 -31 -14 0 -3 -12 -12
-27 -18 -35 -15 -136 -73 -143 -82 -3 -4 -23 -18 -45 -31 -43 -26 -207 -151
-241 -185 -12 -11 -46 -44 -77 -73 -32 -29 -57 -55 -57 -58 0 -2 -22 -28 -50
-56 -100 -106 -220 -263 -220 -288 0 -6 -7 -13 -15 -16 -8 -4 -15 -12 -15 -20
0 -7 -11 -25 -25 -40 -14 -15 -25 -33 -25 -40 0 -8 -3 -14 -7 -14 -5 0 -13
-10 -18 -23 -6 -12 -23 -44 -37 -72 -35 -66 -84 -174 -93 -205 -3 -14 -13 -38
-20 -55 -7 -16 -19 -51 -25 -77 -12 -47 -30 -66 -30 -30 1 19 27 97 52 152 9
19 24 53 33 75 9 22 25 58 35 80 11 22 28 61 40 87 12 25 28 52 36 58 7 7 14
16 14 21 0 12 52 93 63 97 4 2 7 9 7 15 0 14 65 111 98 147 13 14 30 37 38 53
8 15 18 27 22 27 4 0 18 16 31 35 13 19 30 35 37 35 8 0 14 7 14 15 0 9 7 18
15 21 8 4 15 11 15 18 1 6 12 20 27 31 14 11 35 31 47 44 11 13 34 36 50 50
16 14 36 34 45 44 8 9 21 17 28 17 7 0 13 4 13 8 0 4 12 15 28 25 15 9 41 29
58 44 18 15 42 35 54 43 13 8 35 25 50 38 15 12 32 22 38 22 5 0 12 7 16 15 3
8 14 15 24 15 10 0 29 9 42 20 13 11 34 23 47 26 13 4 23 10 23 14 0 4 10 10
23 13 12 4 60 27 107 52 85 46 274 115 315 115 12 0 25 3 29 8 13 13 70 30
101 31 22 0 26 -2 15 -8z m-1746 -1708 c-18 -60 -26 -102 -45 -238 -6 -44 -17
-120 -24 -170 -13 -87 -13 -367 0 -425 3 -14 8 -54 11 -90 3 -36 12 -87 20
-114 8 -27 14 -65 14 -83 0 -19 7 -50 16 -71 9 -20 22 -62 30 -92 26 -110 32
-131 43 -144 7 -8 11 -18 10 -22 -3 -11 8 -40 27 -76 8 -14 14 -33 14 -42 0
-28 -19 -17 -29 17 -5 17 -22 64 -36 102 -15 39 -30 88 -34 110 -4 22 -13 50
-19 62 -15 28 -41 138 -53 228 -5 39 -13 81 -18 95 -12 39 -16 117 -15 370 0
152 5 254 13 290 7 30 15 78 17 105 3 28 12 73 20 102 8 28 14 59 14 69 0 22
34 95 38 83 2 -5 -4 -35 -14 -66z m4702 -755 c-3 -95 -15 -220 -25 -278 -21
-117 -54 -249 -70 -277 -5 -10 -13 -35 -16 -55 -3 -21 -10 -38 -15 -38 -6 0
-10 -11 -10 -24 0 -24 -30 -109 -56 -158 -8 -14 -14 -31 -14 -38 0 -6 -9 -23
-20 -37 -11 -14 -20 -32 -20 -40 0 -15 -99 -188 -124 -216 -9 -9 -16 -24 -16
-32 0 -8 -4 -15 -9 -15 -5 0 -13 -9 -16 -20 -8 -25 -89 -133 -175 -233 -48
-56 -217 -227 -224 -227 -3 0 -16 -9 -28 -20 -84 -75 -240 -190 -258 -190 -6
0 -10 -5 -10 -11 0 -5 -5 -7 -10 -4 -6 3 -13 -1 -16 -9 -3 -9 -12 -16 -19 -16
-7 0 -18 -7 -25 -15 -7 -8 -16 -13 -20 -10 -5 3 -22 -6 -38 -20 -16 -14 -38
-25 -47 -25 -9 0 -28 -9 -42 -20 -14 -11 -32 -20 -39 -20 -8 0 -14 -4 -14 -10
0 -5 -8 -10 -18 -10 -9 0 -34 -9 -55 -20 -20 -11 -43 -20 -49 -20 -7 0 -25 -6
-39 -14 -15 -7 -58 -23 -95 -36 -38 -12 -76 -24 -84 -27 -8 -4 -18 -7 -22 -7
-3 -1 -10 -4 -14 -8 -4 -5 -20 -8 -35 -8 -16 0 -49 -7 -74 -15 -25 -9 -73 -20
-107 -25 -62 -8 -90 -13 -158 -25 -104 -19 -544 -9 -670 15 -154 29 -343 78
-405 105 -16 7 -49 20 -72 29 -157 59 -154 57 -228 101 -33 19 -73 42 -90 50
-16 9 -43 24 -60 35 -16 11 -46 28 -65 39 -104 58 -313 240 -455 397 -33 36
-67 73 -76 82 -9 10 -30 38 -48 65 -18 26 -36 47 -41 47 -6 0 -10 7 -10 15 0
8 -4 15 -8 15 -4 0 -21 25 -37 55 -17 30 -33 55 -37 55 -4 0 -17 21 -30 48
-13 26 -25 49 -28 52 -3 3 -18 32 -33 65 -16 33 -37 77 -48 97 -24 46 -26 76
-4 58 8 -7 15 -18 15 -24 1 -6 9 -29 20 -51 11 -22 19 -44 20 -48 0 -5 9 -20
20 -34 11 -14 20 -34 20 -44 0 -11 4 -19 10 -19 5 0 17 -15 25 -32 8 -18 24
-46 35 -63 11 -16 23 -37 27 -45 3 -8 28 -43 55 -77 26 -35 48 -66 48 -69 0
-4 16 -21 35 -40 19 -18 35 -36 35 -39 0 -4 24 -31 52 -60 29 -30 64 -66 78
-82 14 -15 56 -55 94 -88 38 -33 76 -68 85 -77 8 -10 21 -18 27 -18 7 0 14 -7
18 -15 3 -8 17 -20 31 -25 14 -5 25 -14 25 -20 0 -5 7 -10 15 -10 9 0 18 -6
21 -13 2 -7 26 -24 52 -37 26 -14 50 -30 54 -36 4 -6 21 -17 38 -24 16 -7 30
-16 30 -21 0 -5 9 -9 19 -9 11 0 22 -4 25 -8 3 -4 29 -20 58 -34 122 -60 208
-100 220 -102 7 -2 24 -7 38 -13 84 -34 208 -68 305 -83 55 -9 89 -17 120 -30
36 -15 361 -33 467 -26 248 16 334 26 382 42 21 8 51 14 67 14 16 0 48 6 71
14 24 7 84 26 133 41 50 16 95 32 101 37 6 4 23 9 38 10 14 1 26 6 26 10 0 4
3 7 8 6 11 -3 340 162 353 178 6 8 18 14 26 14 7 0 16 7 19 15 4 8 13 15 20
15 8 0 24 9 36 20 12 11 28 20 35 20 7 0 13 5 13 10 0 6 8 14 17 17 9 4 24 14
33 22 10 9 46 39 80 66 66 53 229 212 293 286 111 130 215 294 323 507 20 40
41 75 45 78 5 3 9 13 9 22 0 9 15 55 34 102 18 47 41 110 49 140 9 30 24 79
33 109 9 30 18 71 19 92 2 21 7 44 11 51 5 7 9 20 9 28 0 8 4 40 8 70 4 30 9
78 12 105 2 28 4 50 5 50 4 0 16 134 19 213 0 17 4 32 8 32 3 0 3 -78 -1 -172z"/>
<path d="M2319 4796 c-4 -4 -31 -8 -60 -10 -232 -15 -475 -82 -737 -202 -40
-19 -77 -34 -83 -34 -5 0 -9 -4 -9 -9 0 -5 -11 -12 -24 -15 -14 -3 -31 -12
-38 -19 -7 -7 -34 -22 -59 -34 -25 -12 -51 -28 -58 -37 -8 -9 -18 -16 -23 -16
-8 0 -66 -37 -78 -51 -3 -3 -26 -20 -52 -39 -27 -18 -48 -37 -48 -42 0 -4 -5
-8 -10 -8 -6 0 -18 -6 -26 -12 -40 -33 -274 -265 -274 -272 0 -5 -9 -18 -19
-30 -52 -56 -81 -95 -81 -104 0 -6 -8 -17 -18 -24 -10 -7 -22 -20 -26 -28 -13
-28 -66 -111 -76 -120 -3 -3 -19 -32 -35 -65 -17 -33 -35 -64 -42 -68 -7 -4
-13 -16 -13 -25 0 -10 -16 -47 -35 -82 -19 -36 -35 -73 -35 -82 0 -9 -6 -29
-14 -45 -19 -38 -46 -119 -69 -203 -8 -30 -20 -80 -27 -110 -6 -30 -15 -71
-20 -90 -58 -233 -46 -657 26 -937 14 -54 29 -114 34 -133 4 -19 15 -52 24
-72 9 -21 16 -50 16 -66 0 -16 7 -35 15 -42 8 -7 15 -20 15 -30 0 -10 16 -50
35 -89 19 -39 35 -77 35 -84 0 -8 6 -20 14 -26 8 -7 18 -26 21 -42 4 -16 10
-29 15 -29 5 0 19 -21 32 -47 12 -27 33 -63 46 -80 14 -18 20 -33 16 -33 -5 0
-1 -5 9 -11 9 -5 17 -15 17 -20 0 -6 6 -16 13 -23 6 -7 21 -25 32 -41 11 -15
29 -38 40 -51 11 -12 34 -39 50 -59 58 -71 285 -295 299 -295 3 0 21 -16 42
-35 20 -19 42 -35 48 -35 6 0 19 -8 28 -17 9 -10 23 -22 30 -28 41 -31 194
-125 204 -125 3 0 18 -9 33 -19 15 -11 39 -23 54 -26 15 -4 27 -11 27 -16 0
-5 9 -9 21 -9 11 0 37 -9 57 -19 130 -68 213 -92 492 -145 47 -9 108 -21 135
-26 28 -6 124 -11 215 -12 223 -1 476 29 642 78 26 8 55 14 65 14 10 1 36 9
58 20 22 11 44 19 48 20 5 0 23 6 40 14 28 12 62 26 77 31 43 15 172 76 180
86 3 3 30 18 60 33 30 15 69 35 85 46 17 11 39 24 50 29 12 5 27 16 34 25 7 9
20 16 28 16 7 0 16 7 19 15 4 8 12 15 19 15 7 0 15 3 17 8 2 4 23 23 48 42 63
48 140 116 223 195 52 50 137 146 137 155 0 5 6 13 13 17 14 10 51 61 60 85 3
10 10 18 15 18 5 0 21 25 37 55 15 30 31 55 35 55 4 0 18 21 31 48 13 26 26
49 30 52 16 14 129 251 129 272 0 8 7 23 15 34 8 10 15 28 15 40 0 11 4 24 9
30 7 8 32 94 77 274 9 36 20 94 24 130 5 36 12 85 17 110 12 69 9 443 -6 555
-7 55 -22 130 -32 167 -10 36 -19 75 -19 86 0 22 -23 102 -50 177 -27 75 -71
187 -80 204 -63 127 -98 190 -114 210 -6 8 -9 15 -8 15 8 2 -22 56 -30 56 -5
0 -16 16 -24 35 -8 19 -19 35 -24 35 -6 0 -10 5 -10 10 0 9 -101 145 -160 215
-56 67 -250 249 -275 259 -8 3 -15 10 -15 16 0 6 -10 15 -22 21 -32 14 -61 32
-78 47 -8 7 -44 32 -80 54 -36 23 -84 54 -107 69 -22 15 -52 30 -65 34 -12 4
-25 11 -28 14 -7 10 -115 61 -128 61 -7 0 -12 4 -12 9 0 5 -14 12 -31 16 -17
4 -46 15 -63 25 -17 10 -48 21 -68 24 -21 4 -38 11 -38 15 0 5 -19 12 -42 15
-24 3 -49 7 -55 8 -7 1 -13 5 -13 9 0 4 -19 11 -42 14 -61 9 -69 10 -113 23
-35 9 -130 23 -175 24 -8 0 -19 4 -25 8 -13 8 -398 14 -406 6z m541 -76 c52
-11 109 -21 127 -24 17 -2 37 -7 43 -11 7 -4 29 -10 49 -12 20 -3 47 -11 61
-18 14 -6 59 -23 100 -35 41 -13 87 -32 102 -42 14 -10 33 -18 41 -18 32 0
357 -183 357 -201 0 -5 7 -9 15 -9 8 0 15 -4 15 -10 0 -5 16 -16 35 -24 19 -8
35 -20 35 -25 0 -6 7 -11 15 -11 8 0 15 -5 15 -10 0 -6 8 -14 18 -17 9 -4 34
-23 55 -42 21 -20 50 -43 63 -52 28 -18 112 -106 152 -159 15 -19 32 -39 39
-45 25 -21 133 -168 133 -181 0 -8 4 -14 9 -14 4 0 19 -21 32 -47 13 -27 29
-52 36 -58 7 -5 33 -53 60 -105 26 -52 50 -97 53 -100 3 -3 13 -30 24 -60 10
-30 26 -71 35 -90 9 -19 25 -62 35 -95 10 -33 27 -85 37 -115 17 -53 33 -157
22 -146 -10 10 -42 111 -43 133 0 13 -6 40 -14 60 -7 21 -19 56 -25 78 -7 22
-17 51 -23 65 -28 68 -37 89 -57 135 -12 28 -26 57 -31 65 -5 8 -19 35 -31 60
-12 25 -34 63 -49 85 -14 22 -32 55 -39 73 -8 17 -17 32 -21 32 -5 0 -19 17
-32 38 -37 59 -139 193 -185 241 -24 25 -43 46 -43 47 0 4 -110 109 -137 131
-60 50 -79 64 -86 63 -4 0 -18 11 -31 25 -13 14 -26 25 -30 25 -4 0 -22 11
-40 25 -18 14 -35 23 -38 20 -2 -3 -15 6 -28 20 -13 14 -27 25 -32 25 -4 0
-31 15 -60 33 -29 19 -60 37 -68 40 -8 4 -22 11 -30 15 -57 33 -102 53 -220
102 -30 12 -63 27 -74 32 -10 5 -30 12 -44 14 -14 3 -57 13 -96 23 -344 88
-612 103 -951 52 -143 -22 -390 -92 -441 -126 -13 -8 -28 -15 -35 -15 -6 0
-43 -16 -82 -35 -39 -19 -77 -35 -84 -35 -7 0 -13 -4 -13 -8 0 -5 -17 -16 -37
-25 -21 -9 -51 -26 -68 -36 -16 -11 -45 -28 -62 -37 -18 -9 -33 -20 -33 -25 0
-5 -7 -9 -14 -9 -8 0 -27 -11 -42 -25 -15 -14 -33 -25 -40 -25 -8 0 -14 -4
-14 -10 0 -5 -4 -10 -10 -10 -6 0 -18 -8 -28 -17 -10 -10 -41 -36 -68 -58 -56
-45 -269 -255 -275 -271 -4 -10 -69 -102 -156 -219 -17 -24 -29 -46 -26 -49 4
-3 2 -6 -4 -6 -6 0 -14 -12 -18 -27 -3 -16 -13 -35 -20 -43 -8 -9 -24 -36 -35
-60 -11 -25 -24 -52 -29 -60 -62 -112 -103 -234 -177 -520 -38 -148 -51 -529
-26 -725 17 -124 55 -298 95 -425 6 -19 10 -38 9 -42 -1 -5 3 -8 8 -8 6 0 10
-8 10 -18 0 -20 33 -107 72 -192 14 -30 29 -65 33 -77 3 -13 11 -23 16 -23 5
0 9 -9 9 -20 0 -11 5 -20 10 -20 6 0 10 -7 10 -15 0 -8 4 -15 9 -15 5 0 12 -8
15 -17 9 -25 38 -77 46 -83 3 -3 17 -23 30 -45 97 -161 322 -395 510 -530 54
-39 69 -50 93 -70 7 -6 23 -16 37 -23 14 -6 52 -28 85 -47 33 -19 85 -47 115
-61 30 -13 63 -29 73 -34 35 -20 85 -43 162 -74 56 -22 158 -51 235 -66 77
-15 109 -29 68 -30 -15 0 -76 14 -135 31 -60 17 -121 34 -138 38 -16 4 -44 15
-62 24 -18 10 -38 17 -45 17 -7 0 -26 7 -42 15 -16 9 -37 17 -46 18 -10 2 -28
10 -41 18 -13 9 -45 26 -71 38 -27 13 -50 27 -53 31 -3 5 -29 20 -59 34 -29
14 -59 32 -66 41 -7 8 -17 15 -22 15 -8 0 -74 47 -125 90 -7 5 -15 10 -18 10
-3 0 -20 13 -38 29 -112 101 -174 161 -206 196 -20 21 -48 52 -63 68 -16 16
-28 32 -28 36 0 4 -13 18 -30 31 -16 14 -29 30 -30 35 0 6 -12 21 -27 35 -14
14 -32 40 -40 57 -7 18 -17 33 -22 33 -5 0 -21 24 -35 54 -14 30 -30 56 -35
58 -8 3 -81 149 -81 163 0 4 -9 18 -20 32 -11 14 -20 35 -20 47 0 11 -7 30
-15 40 -8 11 -15 27 -15 35 0 9 -6 28 -14 42 -7 15 -23 60 -35 100 -12 41 -31
103 -42 139 -10 36 -19 78 -19 92 0 15 -5 39 -12 55 -6 15 -15 84 -19 153 -4
69 -10 163 -13 210 -7 87 15 386 35 495 6 33 17 83 26 110 8 28 19 66 23 85
10 46 29 96 50 140 10 19 21 50 25 68 3 17 11 32 16 32 5 0 9 8 9 18 0 21 72
162 139 272 11 19 24 42 28 50 3 8 21 33 40 56 18 23 33 46 33 52 0 6 3 12 8
14 4 2 32 37 63 78 79 105 303 330 328 330 5 0 11 7 15 15 3 8 12 15 21 15 8
0 15 4 15 8 0 9 77 62 90 62 4 0 10 7 14 15 3 8 12 15 19 15 8 0 22 9 32 20
10 11 26 20 36 20 10 0 26 8 36 18 10 10 58 38 106 62 48 24 90 47 93 52 3 4
14 8 26 8 11 0 37 9 57 19 31 17 166 66 271 99 19 6 64 16 100 22 36 6 81 16
100 22 101 33 594 31 760 -2z m-548 -48 c5 -16 19 -18 147 -17 124 0 144 3
155 18 18 23 57 22 63 -3 6 -24 24 -30 121 -39 79 -8 102 -6 102 10 0 20 31 7
40 -16 8 -20 16 -25 46 -25 21 0 42 6 48 15 10 13 17 13 61 -2 106 -34 125
-45 125 -69 0 -17 7 -24 32 -29 18 -4 39 -11 48 -16 8 -4 40 -20 70 -34 30
-15 66 -33 80 -41 32 -18 46 -18 53 0 10 27 57 -4 57 -37 0 -17 7 -30 18 -35
9 -4 43 -24 75 -45 45 -31 62 -37 85 -32 20 4 33 1 42 -10 7 -8 19 -15 26 -15
8 0 19 -9 26 -20 7 -11 18 -20 25 -20 7 0 13 -5 13 -10 0 -6 8 -14 17 -17 31
-12 85 -73 79 -89 -11 -28 16 -54 56 -54 29 0 41 -6 54 -25 9 -14 32 -41 50
-59 28 -28 32 -38 28 -67 -4 -28 0 -40 23 -65 44 -48 84 -114 77 -126 -4 -7
-3 -8 4 -4 6 4 21 -8 34 -27 15 -22 29 -31 42 -29 25 5 38 -16 31 -55 -4 -21
1 -44 15 -70 11 -21 20 -43 20 -50 0 -7 5 -13 10 -13 6 0 10 -6 10 -12 0 -23
18 -41 41 -42 15 -1 25 -8 28 -21 2 -11 12 -32 22 -47 11 -14 19 -34 19 -43 0
-9 5 -25 11 -36 6 -11 16 -42 23 -69 11 -40 10 -51 -1 -62 -20 -20 -6 -78 18
-78 24 0 39 -35 48 -112 6 -45 4 -61 -10 -79 -9 -13 -15 -28 -13 -33 6 -17 13
-73 20 -176 5 -77 10 -98 25 -109 24 -17 24 -47 0 -60 -15 -8 -19 -27 -25
-103 -6 -81 -5 -94 10 -105 16 -12 16 -19 0 -128 -16 -114 -38 -181 -56 -170
-11 7 -30 -27 -30 -54 0 -11 7 -24 15 -28 12 -7 10 -21 -15 -92 -17 -46 -30
-85 -30 -86 0 -2 -10 -5 -21 -7 -12 -2 -25 -10 -30 -18 -16 -32 -49 -107 -49
-113 0 -3 -13 -29 -30 -57 -31 -53 -37 -79 -20 -96 13 -13 -16 -55 -34 -48
-11 4 -86 -74 -86 -91 0 -4 -9 -18 -19 -31 -14 -18 -18 -34 -14 -59 4 -27 1
-36 -16 -47 -11 -7 -21 -18 -21 -24 0 -6 -29 -41 -65 -78 -36 -37 -65 -71 -65
-77 0 -12 -7 -11 -31 1 -16 9 -24 6 -43 -15 -14 -15 -22 -33 -20 -40 6 -16
-12 -55 -26 -55 -5 0 -28 -18 -51 -40 -37 -35 -47 -39 -76 -34 -18 3 -33 2
-33 -3 0 -5 -16 -17 -35 -26 -19 -9 -35 -21 -35 -27 0 -5 -7 -10 -15 -10 -8 0
-15 -5 -15 -11 0 -5 -4 -8 -9 -4 -6 3 -25 -7 -43 -22 -18 -16 -42 -33 -53 -39
-11 -6 -19 -20 -17 -30 3 -21 -33 -50 -43 -34 -9 14 -32 12 -68 -4 -18 -8 -53
-23 -80 -35 -32 -13 -50 -29 -57 -46 -6 -15 -19 -29 -30 -32 -11 -3 -20 -9
-20 -13 0 -4 -20 -11 -45 -14 -24 -4 -47 -11 -50 -17 -4 -5 -17 -9 -30 -9 -13
0 -36 -5 -50 -12 -21 -9 -31 -9 -46 0 -10 7 -35 12 -54 12 -28 0 -35 -4 -35
-20 0 -24 -28 -37 -97 -45 -27 -4 -56 -8 -65 -11 -9 -3 -25 4 -36 16 -17 18
-25 19 -80 12 -33 -5 -89 -8 -124 -7 -67 2 -108 -10 -108 -32 0 -22 -48 -15
-62 10 -10 16 -23 22 -53 24 -22 1 -68 5 -102 9 -56 6 -63 5 -63 -11 0 -14 -7
-16 -47 -12 -138 15 -233 46 -233 76 0 23 -56 35 -74 16 -8 -10 -22 -9 -61 2
-84 25 -115 43 -115 67 0 14 -9 27 -22 33 -13 6 -44 20 -69 32 -25 11 -51 21
-58 21 -6 0 -11 4 -11 9 0 5 -25 21 -55 37 -43 21 -58 25 -67 16 -16 -16 -23
-15 -43 4 -8 9 -13 24 -10 33 4 13 -8 27 -42 51 -27 19 -50 36 -53 39 -16 18
-53 31 -74 25 -17 -4 -32 2 -54 23 -16 15 -59 56 -96 91 -57 53 -65 66 -60 88
8 33 -21 67 -51 60 -15 -4 -32 3 -53 23 -18 15 -32 31 -32 35 0 5 -11 21 -25
38 -20 24 -22 32 -13 47 6 10 8 25 4 32 -17 35 -35 62 -43 68 -14 9 -93 145
-93 160 0 7 -10 11 -22 10 -13 -2 -29 0 -35 4 -15 9 -18 67 -4 67 8 0 -9 60
-28 98 -5 9 -16 34 -24 54 -12 27 -21 35 -34 32 -19 -5 -18 -9 -68 156 -22 70
-29 120 -17 120 15 0 25 36 17 61 -4 11 -18 24 -31 29 -18 7 -24 17 -25 42 -2
43 -7 88 -13 113 -4 14 2 25 15 33 19 12 20 19 13 85 -4 40 -6 101 -6 137 2
79 -3 96 -28 103 -27 7 -25 41 3 54 39 18 64 193 30 211 -16 9 -16 15 1 93 28
132 48 189 66 189 9 0 25 16 36 36 18 34 18 36 2 48 -23 17 -23 45 -1 76 10
14 19 34 21 45 4 31 30 63 52 67 22 3 35 23 65 96 10 23 21 42 25 42 3 0 12
16 20 35 7 19 19 36 27 39 16 6 17 38 2 53 -19 19 8 55 39 51 21 -2 29 3 41
27 8 17 18 32 23 33 4 2 8 10 8 18 0 8 4 14 8 14 5 0 18 13 30 30 18 24 20 33
11 48 -10 16 -8 23 7 39 10 11 42 44 71 75 72 77 102 100 125 92 27 -8 69 32
62 60 -4 17 6 29 43 57 66 50 89 60 116 54 15 -4 31 1 46 14 13 12 30 21 37
21 7 0 19 6 26 13 7 6 38 25 68 41 67 35 92 56 86 71 -2 7 5 20 16 29 18 16
21 16 37 2 23 -21 22 -21 94 13 34 15 72 31 84 35 15 5 22 14 20 27 -2 21 8
27 107 59 22 7 65 18 97 24 50 11 59 10 78 -5 18 -14 27 -16 51 -7 18 6 30 17
30 27 0 13 14 20 53 28 89 17 134 16 139 -5z m2376 -1754 c0 -7 3 -24 6 -37 3
-14 6 -50 7 -80 1 -31 5 -78 11 -106 9 -49 11 -302 4 -360 -3 -16 -7 -66 -11
-110 -4 -44 -13 -102 -20 -130 -7 -27 -16 -72 -20 -100 -4 -27 -13 -65 -21
-85 -7 -19 -15 -44 -17 -55 -2 -11 -9 -31 -14 -45 -6 -14 -14 -40 -18 -57 -3
-18 -11 -33 -15 -33 -5 0 -12 -16 -16 -35 -3 -19 -10 -38 -15 -41 -5 -3 -9
-14 -9 -24 0 -19 -17 -36 -26 -27 -3 3 -1 13 5 24 21 38 69 169 81 223 5 19
22 87 38 150 16 63 32 142 36 175 10 92 16 129 21 144 12 31 5 353 -10 456
-17 123 -19 165 -7 165 5 0 9 -6 10 -12z m-165 -1359 c-3 -10 -10 -19 -15 -19
-5 0 -6 -4 -3 -10 3 -5 1 -10 -4 -10 -6 0 -11 -9 -11 -20 0 -11 -7 -23 -15
-26 -8 -4 -15 -12 -15 -19 0 -20 -50 -115 -61 -115 -5 0 -9 -9 -9 -20 0 -11
-4 -20 -10 -20 -5 0 -16 -16 -24 -35 -8 -19 -19 -35 -23 -35 -4 0 -17 -19 -28
-41 -11 -23 -27 -47 -37 -53 -10 -6 -18 -17 -18 -24 0 -7 -7 -15 -15 -18 -8
-4 -15 -12 -15 -19 0 -14 -208 -227 -280 -287 -83 -69 -149 -118 -160 -118 -5
0 -10 -4 -10 -10 0 -5 -21 -22 -47 -37 -27 -15 -50 -30 -53 -33 -3 -4 -12 -9
-20 -13 -8 -4 -33 -18 -55 -31 -80 -50 -284 -146 -309 -146 -8 0 -30 -9 -48
-20 -18 -11 -43 -20 -56 -20 -13 0 -32 -5 -43 -10 -24 -13 -191 -56 -249 -64
-25 -3 -56 -9 -70 -12 -38 -10 -337 -31 -405 -29 -116 3 -256 17 -308 31 l-52
13 90 -4 c50 -3 113 -9 140 -13 79 -11 299 -8 430 6 144 16 343 58 440 93 17
6 54 20 83 30 29 10 75 29 103 44 28 14 59 25 70 25 10 0 19 3 19 8 0 4 29 21
65 37 36 17 65 33 65 38 0 4 6 7 14 7 8 0 27 10 43 23 15 13 35 27 43 30 38
18 202 136 213 154 4 7 13 13 20 13 10 0 45 31 205 181 15 14 43 45 62 69 19
23 41 49 48 56 6 7 12 15 12 19 0 8 83 119 93 123 4 2 7 12 7 23 0 10 4 19 9
19 5 0 16 16 25 35 9 19 20 35 24 35 4 0 12 10 18 23 6 12 24 47 39 77 32 63
51 107 59 132 7 24 35 12 29 -13z"/>
<path d="M2260 4373 c-47 -7 -107 -15 -135 -19 -27 -3 -68 -12 -90 -20 -22 -8
-49 -14 -59 -14 -24 0 -168 -49 -180 -61 -6 -5 -20 -9 -32 -9 -12 0 -32 -8
-45 -18 -13 -10 -44 -26 -69 -37 -25 -10 -52 -24 -60 -30 -8 -6 -26 -17 -40
-23 -14 -7 -38 -21 -55 -32 -16 -11 -38 -23 -47 -26 -10 -4 -18 -10 -18 -14 0
-4 -16 -15 -35 -26 -19 -10 -35 -22 -35 -26 0 -5 -4 -8 -9 -8 -5 0 -33 -22
-62 -50 -30 -27 -58 -50 -62 -50 -11 0 -207 -198 -207 -209 0 -4 -9 -16 -20
-26 -11 -10 -20 -22 -20 -26 0 -5 -15 -25 -34 -44 -19 -20 -38 -46 -42 -58 -4
-12 -10 -24 -13 -27 -22 -17 -121 -203 -121 -227 0 -7 -4 -13 -9 -13 -5 0 -13
-14 -16 -32 -4 -18 -11 -39 -16 -48 -9 -15 -29 -66 -35 -85 -2 -9 -12 -39 -32
-95 -3 -8 -7 -22 -8 -30 -2 -8 -9 -42 -17 -75 -32 -131 -40 -230 -34 -426 7
-240 35 -358 108 -467 16 -24 29 -47 29 -51 0 -10 107 -115 140 -138 14 -9 27
-20 30 -24 3 -4 21 -14 40 -23 19 -8 42 -20 50 -25 33 -20 100 -40 205 -60
120 -24 210 -42 350 -71 148 -31 237 -48 285 -55 25 -3 65 -12 90 -19 25 -8
89 -22 143 -32 53 -10 97 -23 97 -28 -1 -13 -19 -95 -25 -113 -3 -9 -12 -9
-37 -2 -18 6 -51 13 -73 16 -22 2 -74 13 -117 24 -42 10 -90 19 -107 19 -16 0
-33 5 -36 10 -4 6 -11 8 -16 4 -5 -3 -15 -2 -22 3 -7 5 -25 10 -42 12 -16 1
-67 11 -113 22 -45 10 -96 19 -111 19 -16 0 -48 7 -71 15 -23 8 -55 15 -71 15
-15 0 -66 9 -111 19 -262 61 -370 53 -412 -32 -16 -34 -17 -45 -7 -78 14 -45
49 -109 61 -109 4 0 18 -19 29 -41 51 -97 121 -127 171 -74 27 29 29 88 5 116
-8 8 -15 19 -15 24 0 5 -7 17 -17 27 -9 10 -14 20 -11 23 5 5 107 -12 154 -26
18 -5 60 -14 95 -19 109 -16 192 -32 254 -47 33 -8 88 -19 123 -24 35 -4 67
-11 73 -14 5 -4 22 -8 37 -11 15 -2 59 -11 97 -20 39 -9 95 -19 125 -24 30 -4
73 -13 96 -19 36 -10 41 -14 37 -36 -8 -39 -25 -47 -66 -30 -20 8 -52 15 -71
15 -19 0 -61 7 -93 16 -32 9 -85 20 -118 25 -33 5 -76 14 -95 19 -19 5 -49 10
-65 10 -17 0 -35 4 -40 9 -10 10 -92 24 -135 23 -93 -1 -156 -31 -170 -82 -5
-19 -10 -46 -10 -60 0 -33 32 -100 59 -124 11 -11 21 -24 21 -29 0 -6 16 -25
35 -44 26 -26 41 -32 61 -29 68 13 95 88 54 146 -26 37 -13 45 48 31 26 -5 68
-13 94 -16 26 -3 50 -10 53 -15 3 -5 31 -11 63 -15 31 -4 71 -11 87 -16 17 -6
65 -14 108 -20 43 -5 89 -14 103 -19 24 -9 25 -13 18 -57 -3 -27 -13 -73 -20
-103 -13 -49 -12 -61 3 -110 26 -83 54 -112 134 -143 49 -19 76 -20 300 -20
284 0 292 2 305 81 5 37 3 47 -17 68 l-22 24 -252 0 c-238 0 -253 1 -270 20
-15 17 -16 25 -6 64 6 25 11 61 11 80 0 22 6 38 16 44 16 9 32 7 159 -21 39
-9 115 -23 170 -32 55 -9 128 -22 162 -30 34 -8 77 -15 95 -15 19 0 43 -6 53
-14 18 -13 18 -15 -12 -40 -38 -32 -51 -78 -32 -115 8 -14 18 -29 24 -33 21
-16 81 -7 120 17 22 13 51 30 65 37 53 27 100 95 100 143 0 41 -55 101 -110
120 -3 1 -12 4 -20 7 -65 25 -196 57 -325 79 -69 12 -67 12 -120 27 -22 6 -60
12 -85 14 -25 1 -61 8 -80 15 -19 7 -51 12 -70 13 -52 1 -66 13 -54 47 9 26
13 28 59 24 27 -2 60 -7 72 -12 13 -5 52 -13 86 -19 34 -5 73 -12 87 -15 14
-3 50 -10 80 -16 30 -6 84 -17 120 -25 36 -8 79 -15 95 -16 17 -1 35 -5 40 -9
10 -7 35 -12 225 -44 127 -22 189 -36 224 -50 l29 -12 -51 -34 c-55 -36 -69
-65 -57 -120 9 -41 61 -65 102 -47 42 18 185 109 207 131 26 27 43 81 38 118
-5 33 -65 99 -90 99 -8 0 -42 9 -76 19 -78 25 -203 51 -240 51 -16 0 -59 8
-95 19 -36 10 -122 28 -191 41 -69 12 -143 27 -165 33 -42 11 -50 12 -105 21
-19 2 -46 8 -60 11 -14 4 -45 9 -70 11 -45 5 -110 17 -183 36 -43 10 -42 6
-21 110 7 33 21 35 114 13 158 -36 349 -73 452 -85 37 -5 76 -13 87 -19 11 -6
35 -11 54 -11 19 0 53 -7 77 -15 36 -13 82 -21 267 -51 82 -13 171 -19 198
-13 17 4 51 7 77 8 26 0 62 7 80 15 88 37 79 32 178 97 72 48 167 155 204 232
17 34 34 63 38 65 5 2 8 9 8 15 0 7 10 30 21 52 12 22 25 51 30 65 4 14 19 57
34 95 25 66 41 122 81 290 12 48 18 129 21 255 4 167 2 198 -21 325 -33 177
-49 245 -75 318 -11 31 -18 57 -15 57 3 0 -2 10 -10 22 -9 12 -16 33 -16 45 0
13 -3 23 -8 23 -4 0 -13 15 -21 33 -31 72 -94 194 -117 224 -13 17 -24 38 -24
45 0 7 -9 19 -20 26 -11 7 -20 17 -20 23 0 11 -66 98 -133 176 -75 86 -236
230 -275 244 -10 4 -24 14 -31 23 -7 9 -19 16 -26 16 -7 0 -15 6 -18 13 -2 7
-22 21 -43 32 -22 11 -46 25 -54 31 -26 21 -124 69 -140 69 -30 1 -67 -25 -80
-55 -20 -49 4 -88 76 -125 33 -16 72 -38 89 -50 16 -11 37 -24 46 -30 77 -47
161 -117 264 -220 80 -80 155 -163 155 -171 0 -2 21 -34 48 -72 26 -37 61 -93
77 -125 17 -31 33 -57 38 -57 4 0 7 -10 7 -22 0 -13 9 -34 20 -48 11 -14 20
-31 20 -39 0 -8 16 -60 35 -115 20 -56 40 -114 46 -131 6 -16 13 -46 15 -65 3
-19 11 -64 19 -100 15 -65 28 -363 17 -375 -3 -3 -5 -27 -3 -53 2 -58 -54
-324 -83 -387 -8 -16 -18 -41 -24 -55 -5 -14 -28 -63 -51 -110 -23 -47 -41
-91 -41 -98 0 -7 -4 -12 -8 -12 -4 0 -16 -14 -26 -30 -36 -62 -174 -180 -209
-180 -8 0 -29 -8 -48 -17 -45 -23 -233 -23 -339 0 -175 38 -228 49 -277 57
-28 4 -56 11 -61 14 -4 3 -31 8 -58 11 -27 4 -74 13 -104 21 -30 8 -77 17
-105 19 -47 4 -96 14 -260 50 -38 9 -86 18 -105 21 -19 3 -57 10 -85 15 -27 6
-72 14 -100 19 -27 4 -70 13 -95 20 -25 6 -58 14 -75 17 -16 2 -75 13 -130 23
-55 11 -111 22 -125 24 -14 3 -36 8 -50 11 -14 3 -38 8 -55 11 -16 2 -59 11
-95 19 -103 22 -160 34 -230 46 -36 6 -86 17 -111 25 -25 7 -60 15 -78 16 -17
1 -31 5 -31 9 0 3 -18 12 -40 19 -22 7 -45 19 -51 27 -6 7 -18 13 -25 13 -17
0 -112 93 -139 135 -32 50 -55 98 -55 115 0 9 -4 20 -8 26 -28 31 -43 382 -22
509 21 129 50 249 81 335 38 103 93 225 122 268 16 24 40 63 53 88 13 24 33
55 45 67 12 12 32 38 44 57 13 19 40 52 59 73 20 21 36 42 36 48 0 5 6 9 13 9
6 0 25 16 41 35 16 19 35 35 42 35 6 0 14 6 17 13 6 17 141 127 156 127 6 0
11 4 11 8 0 5 16 17 35 28 19 10 35 22 35 26 0 5 5 8 11 8 6 0 30 14 54 30 24
17 50 30 57 30 7 0 29 11 48 23 19 13 44 26 55 30 11 3 45 15 75 27 58 22 64
24 120 38 20 5 45 14 57 20 12 7 37 12 57 12 19 0 47 5 63 11 15 6 92 14 171
18 141 6 143 7 167 35 14 17 25 42 25 58 0 31 -25 70 -50 77 -32 9 -139 6
-220 -6z m218 -39 c12 -8 22 -23 22 -33 0 -37 -31 -48 -140 -54 -58 -3 -116
-8 -130 -11 -24 -5 -39 -7 -140 -26 -25 -4 -79 -18 -120 -30 -41 -12 -86 -24
-100 -27 -14 -3 -29 -12 -33 -20 -5 -7 -12 -11 -16 -9 -11 7 -253 -117 -271
-139 -7 -8 -19 -15 -27 -15 -7 0 -16 -7 -19 -15 -4 -8 -10 -15 -15 -15 -9 0
-80 -47 -89 -58 -3 -4 -26 -24 -51 -45 -54 -43 -199 -187 -199 -197 0 -3 -13
-20 -30 -36 -33 -34 -100 -131 -100 -145 0 -5 -4 -9 -8 -9 -5 0 -17 -16 -28
-35 -10 -19 -21 -35 -24 -35 -3 0 -12 -16 -19 -35 -7 -19 -17 -35 -22 -35 -5
0 -9 -5 -9 -11 0 -6 -16 -45 -35 -86 -19 -41 -35 -80 -35 -87 0 -7 -4 -16 -9
-21 -14 -16 -59 -184 -66 -249 -4 -33 -11 -71 -17 -85 -6 -15 -10 -119 -10
-241 1 -169 4 -224 16 -259 9 -24 16 -50 16 -59 0 -24 60 -138 91 -173 15 -17
30 -35 31 -38 6 -12 86 -71 96 -71 6 0 17 -8 24 -18 7 -9 29 -23 48 -30 43
-16 204 -54 325 -76 50 -9 128 -25 175 -36 47 -10 119 -26 160 -34 115 -22
280 -57 325 -67 22 -5 72 -14 110 -19 39 -5 93 -16 120 -25 28 -8 64 -15 82
-15 17 0 44 -5 60 -11 15 -6 57 -14 93 -18 36 -5 94 -16 130 -24 36 -9 94 -23
130 -31 l65 -15 -55 3 c-30 3 -75 9 -100 15 -98 23 -202 43 -257 51 -32 4 -69
11 -83 14 -34 8 -70 15 -100 21 -69 13 -87 17 -110 25 -14 5 -45 11 -70 14
-25 2 -56 7 -70 11 -14 4 -55 11 -91 15 -36 3 -70 9 -75 12 -9 6 -159 39 -284
63 -36 7 -76 16 -90 19 -14 3 -54 11 -89 17 -36 5 -67 12 -71 14 -3 2 -29 7
-56 11 -55 7 -155 38 -196 60 -14 8 -31 14 -37 14 -14 0 -38 20 -120 100 -95
93 -132 176 -156 345 -16 106 -18 342 -4 351 4 2 7 23 7 46 2 54 49 282 66
317 7 14 21 55 31 91 11 36 22 67 25 70 8 7 60 114 60 123 0 4 9 17 20 29 11
12 20 30 20 40 0 10 3 18 8 18 4 0 16 16 26 35 10 19 27 43 36 53 10 10 25 32
33 48 35 66 198 232 339 346 26 21 50 38 53 38 6 0 27 16 53 42 10 9 28 22 42
28 14 6 43 22 65 35 75 44 200 105 216 105 8 0 19 4 25 9 13 12 148 51 177 51
14 0 27 4 29 9 2 5 21 12 43 15 64 10 98 16 130 22 26 4 95 10 210 17 20 1 31
8 33 21 6 28 -16 36 -93 30 -38 -2 -97 -6 -130 -8 -33 -3 -71 -7 -85 -11 -14
-4 -34 -8 -45 -11 -23 -4 -79 -18 -145 -34 -65 -16 -194 -62 -200 -71 -3 -5
-15 -10 -25 -12 -11 -2 -45 -16 -75 -32 -30 -17 -62 -33 -70 -38 -8 -4 -33
-18 -55 -32 -22 -13 -50 -29 -62 -34 -13 -6 -23 -15 -23 -21 0 -5 -4 -10 -10
-10 -10 0 -70 -43 -155 -114 -45 -37 -145 -137 -239 -241 -20 -22 -36 -46 -36
-52 0 -7 -4 -13 -9 -13 -8 0 -48 -57 -60 -85 -2 -5 -10 -14 -16 -20 -11 -9
-49 -75 -108 -190 -8 -16 -26 -52 -38 -80 -12 -27 -25 -57 -29 -65 -7 -14 -11
-29 -25 -95 -2 -11 -8 -33 -14 -50 -22 -63 -51 -197 -51 -233 0 -20 -5 -75
-12 -120 -16 -117 10 -417 42 -482 5 -8 22 -46 40 -85 18 -38 48 -85 66 -104
19 -19 34 -38 34 -42 0 -4 9 -11 20 -14 11 -3 20 -13 20 -21 0 -8 4 -14 10
-14 5 0 31 -15 58 -34 26 -19 60 -38 75 -41 15 -4 30 -11 33 -16 3 -5 16 -9
28 -9 13 0 43 -7 67 -16 24 -9 60 -18 79 -21 19 -2 91 -16 160 -30 69 -14 148
-29 175 -35 99 -18 191 -37 270 -53 44 -10 100 -20 125 -24 25 -4 50 -10 55
-13 6 -4 48 -12 94 -18 110 -15 134 -26 127 -59 -3 -15 -11 -51 -17 -81 -21
-109 -29 -130 -49 -130 -10 0 -22 5 -25 10 -4 6 -10 8 -14 6 -4 -3 -23 -1 -42
4 -19 5 -50 11 -69 14 -19 2 -46 7 -60 10 -14 4 -50 10 -80 16 -101 17 -175
32 -215 43 -57 15 -63 16 -130 28 -33 6 -69 12 -80 14 -11 2 -36 7 -55 10 -19
3 -66 13 -105 21 -38 8 -99 19 -135 24 -36 5 -81 14 -100 20 -19 5 -66 10
-104 10 -79 0 -106 -16 -106 -60 0 -25 62 -131 82 -138 4 -2 15 -19 24 -38 23
-47 50 -61 64 -33 13 23 -7 60 -77 146 -19 24 -31 48 -28 54 11 18 240 -11
380 -48 64 -17 168 -37 278 -53 37 -5 75 -14 85 -19 9 -5 40 -11 67 -14 28 -3
59 -8 70 -11 53 -15 253 -55 310 -61 74 -8 82 -21 62 -94 -9 -34 -17 -70 -17
-82 0 -17 -4 -20 -22 -16 -13 4 -61 13 -108 21 -200 36 -284 55 -277 63 4 3
43 -2 89 -10 46 -9 97 -18 113 -21 38 -6 123 -24 152 -32 26 -7 40 18 50 92
l6 43 -44 11 c-24 6 -57 15 -74 20 -16 5 -50 11 -75 13 -39 4 -226 39 -285 54
-11 2 -38 9 -60 13 -22 5 -50 12 -62 15 -41 9 -57 12 -106 19 -27 4 -59 10
-70 13 -12 3 -44 9 -72 13 -27 4 -79 15 -115 23 -138 32 -240 45 -240 32 0
-11 51 -85 58 -85 7 0 42 -73 42 -88 -1 -11 -37 -52 -47 -52 -17 0 -73 62 -96
106 -8 16 -27 40 -41 53 -29 27 -44 97 -27 129 16 30 73 45 140 38 162 -17
327 -45 416 -70 27 -8 75 -17 105 -21 30 -4 62 -11 70 -15 8 -4 35 -10 60 -12
25 -3 77 -12 115 -21 39 -9 104 -23 145 -31 41 -8 107 -22 145 -31 85 -18 144
-20 149 -3 10 34 31 167 28 177 -2 6 -13 11 -23 11 -11 0 -28 4 -37 9 -18 10
-63 19 -127 27 -22 3 -65 12 -96 20 -31 8 -70 14 -85 14 -16 0 -51 7 -78 15
-26 8 -69 17 -95 21 -25 3 -55 8 -66 12 -27 8 -23 7 -80 16 -27 4 -72 14 -100
23 -27 8 -70 16 -95 19 -25 3 -72 11 -105 19 -33 7 -79 16 -102 20 -24 4 -43
11 -43 16 0 5 -3 8 -7 7 -26 -5 -150 62 -201 109 -26 23 -50 43 -54 43 -5 0
-8 7 -8 15 0 8 -5 15 -10 15 -14 0 -75 98 -101 162 -44 109 -59 212 -59 398 1
155 3 199 14 260 2 14 8 49 11 78 4 29 16 77 26 105 11 28 19 63 19 77 0 14 7
34 15 44 8 11 15 30 15 43 0 13 4 23 8 23 4 0 9 12 10 28 3 39 134 295 173
338 11 11 19 26 19 32 0 7 4 12 8 12 5 0 16 16 25 35 9 19 21 35 27 35 5 0 10
7 10 15 0 8 7 15 15 15 8 0 15 6 15 14 0 8 7 16 15 20 8 3 15 10 15 15 0 14
191 198 255 246 173 129 313 210 470 273 70 28 250 79 310 87 28 4 59 10 70
12 111 25 262 29 293 7z m905 -220 c32 -19 60 -34 63 -34 8 0 78 -54 82 -62 2
-5 8 -8 14 -8 6 0 23 -10 38 -22 15 -13 37 -30 49 -38 45 -30 162 -142 216
-206 17 -19 41 -47 56 -62 37 -39 109 -139 109 -152 0 -5 4 -10 8 -10 8 0 20
-19 91 -155 41 -78 41 -77 48 -105 3 -11 9 -20 12 -20 4 0 8 -6 8 -13 0 -6 14
-48 30 -92 17 -44 34 -98 38 -120 4 -22 15 -53 23 -70 8 -16 19 -59 23 -95 4
-36 12 -83 17 -104 17 -65 15 -452 -3 -510 -8 -27 -15 -68 -15 -92 0 -24 -4
-45 -9 -48 -4 -3 -14 -34 -21 -68 -7 -35 -18 -76 -25 -93 -76 -185 -132 -304
-161 -342 -13 -17 -24 -34 -24 -37 0 -3 -8 -14 -19 -25 -10 -10 -23 -25 -27
-33 -13 -20 -110 -98 -123 -98 -6 0 -11 -4 -11 -9 0 -11 -101 -61 -123 -61 -7
0 -17 -3 -21 -7 -30 -31 -282 -37 -356 -9 -19 8 -37 14 -40 14 -3 0 -21 3 -40
6 -19 3 -57 8 -84 11 -27 3 -57 10 -65 15 -25 15 27 12 101 -4 35 -8 81 -16
104 -19 23 -2 46 -7 51 -10 22 -14 198 -19 238 -8 22 7 54 14 70 17 41 7 109
40 176 85 57 38 153 136 170 174 5 11 18 34 29 50 20 30 31 52 55 110 7 17 18
41 24 55 43 100 87 232 96 288 4 28 11 40 18 36 8 -5 8 -3 0 6 -8 9 -9 18 -3
25 22 26 37 269 28 435 -7 129 -13 163 -55 340 -14 58 -26 110 -27 115 -4 19
-38 110 -52 137 -8 14 -14 33 -14 40 0 8 -11 35 -25 59 -13 24 -36 69 -51 99
-15 30 -42 76 -60 101 -19 26 -34 50 -34 53 0 7 -52 73 -105 135 -74 85 -254
258 -289 276 -21 11 -43 27 -50 35 -12 16 -40 35 -71 49 -12 5 -27 16 -34 25
-7 9 -17 16 -22 16 -4 0 -30 13 -58 29 -27 16 -52 27 -55 24 -3 -4 -6 -1 -6 7
0 10 -3 10 -15 0 -24 -20 -18 -49 13 -62 15 -7 45 -24 67 -38 22 -14 49 -31
60 -38 11 -6 35 -20 53 -29 17 -9 32 -20 32 -25 0 -4 7 -8 15 -8 8 0 15 -4 15
-10 0 -5 21 -24 47 -41 48 -33 273 -253 273 -266 0 -5 14 -22 30 -40 17 -18
30 -35 30 -38 0 -3 15 -26 33 -49 18 -24 44 -65 57 -92 14 -27 28 -50 33 -52
4 -2 7 -9 7 -15 0 -7 11 -34 25 -61 13 -27 22 -53 19 -58 -3 -4 -2 -8 3 -8 22
0 117 -312 133 -438 5 -40 13 -78 16 -84 8 -13 7 -355 0 -367 -3 -5 -10 -47
-15 -93 -5 -47 -16 -108 -25 -134 -50 -166 -60 -195 -67 -200 -5 -3 -9 -18 -9
-33 0 -15 -9 -36 -20 -46 -11 -10 -20 -24 -20 -30 0 -20 -78 -163 -107 -197
-27 -31 -71 -75 -103 -103 -39 -33 -126 -78 -178 -92 -33 -9 -95 -16 -147 -15
-117 1 -123 1 -131 14 -5 7 18 8 72 3 175 -15 314 41 446 179 46 47 81 111
176 314 26 56 58 158 72 232 5 25 16 74 24 110 18 76 22 408 6 487 -5 26 -12
59 -14 73 -3 14 -9 45 -14 70 -6 25 -15 70 -21 100 -7 30 -18 71 -25 90 -8 19
-20 54 -27 78 -6 23 -15 42 -19 42 -4 0 -11 16 -14 35 -4 19 -11 35 -16 35 -6
0 -10 8 -10 18 0 10 -9 28 -20 40 -11 12 -20 27 -20 34 -1 7 -12 31 -25 53
-14 22 -32 55 -42 73 -9 17 -20 32 -25 32 -4 0 -8 5 -8 11 0 34 -271 323 -361
384 -24 17 -46 34 -48 38 -2 5 -13 13 -25 18 -28 13 -55 29 -93 56 -17 13 -50
31 -74 42 -79 33 -101 89 -46 111 28 11 50 5 120 -36z m-987 -2589 c27 -8 65
-15 84 -15 19 0 67 -9 105 -19 81 -22 230 -51 262 -51 12 0 42 -7 67 -15 25
-9 64 -18 88 -21 24 -3 61 -11 83 -17 39 -11 39 -11 11 -15 -16 -2 -48 1 -70
8 -23 6 -66 15 -96 20 -30 5 -89 16 -130 25 -41 9 -109 22 -150 30 -41 7 -120
23 -175 34 -139 29 -154 28 -162 -9 -9 -45 -23 -47 -23 -3 0 64 21 74 106 48z
m-110 -150 c-7 -65 -9 -64 119 -89 44 -8 105 -20 135 -26 30 -6 78 -15 105
-21 28 -5 84 -16 125 -24 115 -21 171 -32 215 -44 37 -9 171 -34 255 -47 19
-3 57 -11 84 -19 27 -8 64 -15 81 -15 17 0 40 -7 51 -15 10 -8 27 -15 37 -15
20 0 74 -34 95 -58 35 -45 0 -104 -95 -158 -27 -15 -57 -35 -68 -45 -19 -17
-50 -24 -86 -21 -22 2 -34 49 -18 68 14 17 87 67 112 77 45 17 21 66 -33 67
-14 0 -70 9 -125 20 -55 11 -116 23 -135 26 -19 2 -39 9 -44 14 -17 17 74 11
154 -10 41 -11 86 -20 100 -20 35 -1 142 -38 151 -52 9 -14 -18 -48 -38 -48
-7 0 -13 -5 -13 -10 0 -6 -12 -17 -27 -23 -51 -23 -93 -52 -93 -63 0 -6 7 -17
16 -25 12 -10 19 -10 32 -1 10 7 25 15 35 18 9 4 17 10 17 15 0 4 16 13 35 20
19 7 35 17 35 21 0 4 5 8 11 8 16 0 69 63 69 83 0 40 -79 88 -170 102 -25 4
-49 10 -55 14 -5 4 -28 8 -50 10 -22 1 -60 8 -85 16 -25 7 -74 18 -110 24 -36
6 -76 14 -90 17 -14 3 -41 8 -60 11 -19 2 -71 13 -115 23 -44 10 -93 21 -110
24 -16 3 -41 8 -55 11 -14 3 -43 8 -65 11 -53 7 -77 11 -95 18 -20 7 -62 15
-145 27 -120 17 -127 24 -104 115 16 61 23 55 15 -11z m94 -163 c130 -30 245
-53 335 -67 55 -9 133 -24 172 -35 40 -11 83 -20 95 -21 13 0 41 -7 63 -14
l40 -14 -50 1 c-27 1 -61 7 -75 13 -14 6 -43 12 -65 14 -22 1 -74 11 -115 21
-41 10 -91 21 -110 24 -19 2 -46 8 -60 11 -14 4 -50 10 -80 15 -31 4 -65 10
-75 13 -62 19 -181 35 -195 27 -13 -8 -31 -105 -24 -125 4 -9 19 -15 35 -15
17 0 67 -9 112 -19 45 -11 127 -27 182 -36 186 -31 351 -70 360 -85 3 -5 0 -8
-7 -5 -7 2 -24 7 -38 9 -14 3 -36 8 -50 11 -14 3 -50 9 -80 14 -30 4 -84 15
-120 24 -36 9 -101 23 -145 31 -94 17 -180 34 -215 41 -60 13 -62 15 -56 53 3
21 8 59 11 86 l7 48 51 -5 c29 -3 72 -10 97 -15z m-854 -7 c60 -8 132 -21 159
-29 l50 -14 -38 -1 c-20 -1 -72 8 -114 19 -103 28 -226 30 -254 4 -32 -29 -39
-48 -26 -71 7 -11 23 -40 36 -64 13 -24 31 -52 41 -61 10 -9 20 -22 22 -29 6
-19 38 -3 38 19 0 23 -48 112 -60 112 -14 0 -21 33 -8 42 19 12 173 -1 258
-23 41 -10 86 -20 100 -22 14 -2 32 -7 40 -10 8 -3 22 -8 30 -11 35 -13 -141
13 -317 47 -88 17 -98 7 -53 -58 33 -48 39 -95 14 -116 -25 -21 -74 13 -103
72 -13 27 -28 49 -32 49 -16 0 -28 69 -18 104 7 25 17 36 42 44 45 14 69 14
193 -3z m785 -231 c24 -9 69 -20 99 -25 30 -4 87 -13 125 -20 39 -6 106 -19
150 -30 45 -10 91 -19 105 -19 33 0 184 -41 188 -52 2 -4 10 -8 18 -8 29 0 12
-29 -33 -59 -71 -45 -83 -56 -83 -79 0 -16 6 -20 26 -17 15 1 29 6 33 11 3 5
19 16 35 24 49 25 106 82 106 105 0 20 -33 69 -48 71 -4 1 -23 7 -42 15 -19 7
-38 12 -42 11 -5 -1 -8 2 -8 8 0 16 27 12 67 -10 21 -11 42 -20 48 -20 14 0
39 -40 42 -70 4 -28 -49 -100 -73 -100 -8 0 -14 -4 -14 -9 0 -5 -8 -12 -19
-16 -10 -3 -29 -14 -41 -25 -31 -27 -64 -25 -84 5 -16 24 -15 27 5 54 12 17
41 40 65 53 51 26 56 43 17 51 -31 6 -50 11 -73 19 -21 8 -126 29 -190 39 -30
4 -84 15 -120 23 -36 8 -81 17 -100 19 -57 9 -153 28 -186 38 -70 21 -82 9
-101 -109 -27 -163 -28 -162 151 -177 77 -6 178 -7 246 -2 63 4 125 5 136 3
23 -6 35 -35 27 -65 -9 -35 -56 -41 -302 -39 -208 3 -240 5 -271 22 -38 20
-90 65 -90 78 0 13 30 9 36 -5 3 -8 18 -23 33 -35 41 -30 276 -54 416 -42 55
5 108 9 117 10 9 0 24 7 33 16 13 13 13 19 3 31 -10 12 -25 14 -73 8 -70 -8
-274 -7 -360 1 -33 4 -76 14 -95 23 -31 14 -35 21 -38 61 -2 25 7 91 20 147
l23 103 36 0 c20 0 56 -7 80 -16z"/>
<path d="M2367 4088 c-27 -3 -68 -8 -90 -9 -57 -4 -177 -53 -214 -88 -12 -12
-24 -21 -27 -21 -8 0 -52 -44 -59 -60 -4 -8 -19 -35 -33 -60 -28 -48 -53 -136
-53 -185 -1 -48 30 -79 77 -79 50 0 79 24 88 70 6 32 9 34 44 34 21 0 51 -5
67 -11 15 -6 51 -15 78 -19 123 -20 355 -62 470 -86 39 -8 84 -14 101 -14 16
0 34 -4 40 -9 5 -4 36 -13 69 -19 33 -6 101 -18 150 -27 50 -9 107 -21 128
-26 38 -10 38 -11 33 -47 -8 -46 21 -98 60 -108 41 -10 91 21 105 65 38 126
11 293 -61 383 -60 76 -134 133 -225 177 -80 38 -112 49 -200 70 -49 12 -115
28 -145 36 -30 7 -80 16 -110 20 -30 3 -77 8 -105 11 -80 9 -137 10 -188 2z
m-37 -47 c0 -5 -12 -11 -27 -14 -59 -11 -87 -18 -103 -27 -10 -5 -20 -7 -22
-4 -3 2 -11 -2 -18 -11 -7 -8 -18 -15 -24 -15 -20 0 -95 -70 -124 -114 -50
-77 -79 -204 -50 -222 16 -10 58 42 58 74 0 54 10 58 97 38 81 -18 154 -35
188 -42 11 -2 47 -9 80 -14 96 -15 229 -40 243 -45 8 -3 37 -8 65 -11 43 -4
73 -9 107 -19 3 -1 20 -5 38 -9 17 -4 32 -12 32 -16 0 -5 -6 -8 -12 -5 -7 2
-29 6 -48 9 -19 2 -64 11 -100 19 -63 15 -133 28 -250 46 -30 5 -62 12 -70 15
-8 3 -44 10 -80 15 -70 11 -86 14 -140 30 -19 6 -56 11 -81 11 -44 0 -48 -2
-58 -31 -6 -18 -11 -40 -11 -49 0 -20 -41 -34 -70 -25 -10 3 -20 15 -23 26 -6
21 13 97 39 157 8 18 14 37 14 42 0 13 101 120 113 120 6 0 20 8 31 18 19 17
70 34 156 52 50 11 50 11 50 1z m360 -6 c14 -2 50 -10 80 -16 77 -15 233 -60
244 -70 6 -5 20 -9 32 -9 13 0 25 -4 28 -8 3 -4 29 -20 59 -36 30 -15 64 -36
75 -47 12 -10 24 -19 27 -19 10 0 62 -58 93 -102 16 -24 33 -61 37 -83 5 -22
10 -47 12 -55 8 -25 4 -113 -6 -145 -7 -23 -9 -7 -10 68 -1 76 -5 107 -21 139
-11 23 -20 47 -20 52 0 14 -77 96 -90 96 -5 0 -10 7 -10 15 0 8 -5 15 -10 15
-6 0 -33 16 -60 35 -27 19 -54 35 -60 35 -5 0 -29 8 -52 19 -61 27 -139 51
-164 51 -11 0 -46 9 -76 19 -31 11 -78 22 -104 24 -27 3 -60 9 -74 12 -14 4
-76 8 -139 11 -63 2 -117 7 -120 10 -7 7 289 -2 329 -11z m4 -81 c130 -24 317
-77 346 -100 8 -6 26 -15 40 -19 22 -7 60 -31 97 -60 62 -50 73 -61 73 -72 0
-7 3 -13 8 -13 9 0 30 -48 34 -80 3 -24 2 -25 -52 -21 -30 2 -67 10 -82 17
-15 8 -29 14 -30 13 -2 -1 -25 2 -53 6 -27 4 -59 9 -70 11 -11 2 -31 6 -45 9
-14 3 -41 8 -60 11 -36 4 -67 10 -110 20 -14 3 -50 10 -80 14 -30 4 -84 15
-120 23 -36 8 -110 23 -165 32 -55 10 -129 24 -165 32 -36 8 -87 18 -113 23
-82 15 -86 18 -74 43 16 34 91 86 155 106 78 26 336 28 466 5z"/>
<path d="M2350 3957 c-3 -3 -25 -8 -50 -12 -73 -10 -190 -74 -190 -103 0 -5
35 -16 78 -26 42 -10 93 -22 112 -27 19 -5 53 -13 75 -19 22 -5 57 -10 78 -10
21 0 46 -4 56 -10 10 -5 47 -12 82 -15 35 -4 88 -14 117 -22 30 -8 77 -19 105
-23 29 -5 77 -14 107 -19 30 -6 89 -17 130 -25 153 -30 202 -37 207 -32 9 9
-9 67 -23 73 -8 3 -14 11 -14 18 0 7 -16 23 -35 36 -19 13 -35 27 -35 32 0 4
-7 7 -15 7 -8 0 -15 3 -15 8 0 10 -58 41 -87 47 -13 2 -35 11 -50 19 -16 8
-41 18 -58 22 -16 4 -34 8 -40 10 -5 2 -40 10 -78 18 -37 8 -73 18 -80 23 -6
4 -19 8 -27 10 -75 11 -343 27 -350 20z m240 -47 c133 -14 241 -36 305 -61 28
-10 58 -19 66 -19 9 0 22 -7 29 -15 7 -8 20 -15 29 -15 9 0 27 -9 41 -20 14
-11 31 -20 38 -20 7 0 18 -5 25 -10 7 -6 24 -20 40 -31 15 -11 32 -30 38 -41
10 -18 8 -19 -33 -14 -24 2 -54 8 -68 11 -14 3 -38 8 -55 11 -16 3 -70 13
-120 23 -49 10 -135 27 -190 36 -55 9 -136 25 -180 35 -44 10 -96 21 -115 24
-19 3 -46 8 -60 11 -14 4 -45 9 -70 11 -57 6 -130 26 -130 36 0 27 207 71 290
61 8 -1 62 -7 120 -13z"/>
<path d="M1622 3618 c-7 -7 -12 -9 -12 -5 0 4 -10 -3 -22 -15 -16 -16 -23 -35
-23 -61 0 -59 30 -78 150 -101 55 -10 141 -27 190 -38 174 -38 213 -46 429
-84 50 -8 93 -17 98 -20 4 -3 40 -9 80 -14 40 -5 102 -16 138 -24 71 -16 89
-19 200 -40 41 -8 89 -18 105 -21 17 -4 57 -11 90 -16 33 -6 94 -16 135 -24
41 -8 89 -17 105 -19 17 -2 37 -7 45 -10 16 -6 43 -12 120 -26 25 -5 61 -14
80 -21 37 -13 125 -78 150 -111 8 -11 24 -32 35 -46 86 -112 150 -313 133
-420 -15 -94 -36 -105 -158 -77 -80 18 -93 21 -205 41 -49 8 -121 23 -160 31
-38 9 -90 19 -115 23 -25 5 -56 11 -70 14 -32 9 -54 13 -110 21 -25 4 -56 8
-70 11 -14 2 -47 8 -75 12 -27 5 -77 16 -110 25 -33 8 -81 18 -108 21 -26 3
-51 7 -55 10 -5 3 -37 10 -73 15 -89 15 -108 19 -120 26 -5 4 -34 10 -62 15
-124 18 -244 41 -266 51 -13 5 -49 12 -80 16 -75 8 -75 8 -86 15 -5 3 -32 9
-60 13 -27 4 -84 15 -125 25 -41 10 -97 21 -125 24 -27 3 -63 10 -80 16 -16 5
-55 13 -85 18 -30 6 -66 13 -80 16 -180 47 -298 25 -395 -74 -14 -14 -25 -30
-25 -36 0 -7 -6 -14 -14 -17 -15 -6 -43 -64 -74 -155 -17 -51 -21 -82 -19
-166 1 -57 7 -110 13 -117 6 -8 17 -38 24 -66 6 -29 16 -53 20 -53 4 0 11 -11
14 -25 3 -13 20 -38 36 -55 17 -17 30 -34 30 -39 0 -4 10 -13 23 -19 12 -7 29
-16 37 -22 33 -21 108 -48 170 -60 99 -19 211 -39 250 -45 45 -7 213 -43 265
-57 22 -6 63 -14 90 -19 28 -4 73 -13 100 -19 28 -5 77 -14 110 -19 33 -5 103
-19 155 -31 119 -27 151 -34 275 -55 106 -18 243 -46 337 -70 32 -8 70 -15 85
-15 16 0 53 -7 83 -16 30 -8 73 -17 95 -20 42 -5 132 -23 275 -54 228 -51 294
-47 305 20 7 42 -7 85 -32 98 -10 5 -70 19 -133 31 -63 12 -129 26 -146 31
-17 6 -51 10 -77 10 -25 0 -48 4 -51 9 -5 8 -27 13 -103 27 -30 5 -62 12 -93
19 -14 3 -41 7 -60 10 -34 4 -99 17 -150 29 -14 4 -53 10 -87 15 -34 5 -67 12
-73 16 -6 4 -34 9 -63 12 -29 2 -70 9 -92 15 -73 18 -80 20 -125 28 -53 8
-123 22 -320 63 -80 16 -171 33 -203 38 -32 5 -67 13 -77 19 -10 5 -36 10 -58
10 -21 0 -61 7 -89 15 -67 20 -141 36 -175 37 -16 1 -28 4 -28 8 0 3 -15 7
-32 8 -49 3 -112 13 -123 20 -12 7 -23 11 -67 19 -52 9 -95 49 -128 119 -31
67 -37 90 -20 79 6 -3 10 -1 10 4 0 6 -4 11 -10 11 -18 0 -12 151 9 210 11 30
24 56 30 58 6 2 11 9 11 16 0 7 12 23 28 37 24 22 35 24 112 23 47 -1 105 -7
130 -14 25 -7 74 -16 110 -20 68 -8 203 -34 257 -51 18 -5 69 -17 115 -25 46
-8 117 -21 158 -29 41 -7 104 -19 140 -25 36 -6 83 -16 105 -22 22 -7 51 -13
65 -15 30 -3 207 -38 301 -59 37 -7 78 -14 92 -14 15 0 52 -7 84 -15 32 -9 74
-18 93 -21 35 -5 108 -19 250 -50 41 -9 100 -20 130 -24 30 -4 69 -11 85 -15
31 -7 80 -16 295 -58 143 -29 199 -28 258 2 39 20 92 76 92 99 0 6 4 12 10 14
18 6 31 112 25 203 -8 111 -32 198 -79 292 -20 40 -36 77 -36 83 0 5 -5 10
-10 10 -6 0 -14 8 -17 18 -16 43 -138 182 -160 182 -7 0 -13 4 -13 10 0 11
-60 44 -60 33 0 -5 -4 -3 -8 4 -7 10 -41 22 -147 49 -11 3 -38 8 -60 10 -22 3
-69 11 -105 19 -36 7 -90 19 -120 25 -30 6 -71 15 -90 20 -19 4 -80 16 -135
25 -134 23 -195 35 -225 45 -14 5 -47 11 -75 13 -27 3 -70 9 -95 15 -25 6 -67
16 -95 22 -27 5 -59 13 -70 15 -11 3 -47 10 -80 14 -33 5 -71 12 -85 16 -35 9
-58 13 -113 20 -26 3 -58 10 -71 15 -13 5 -53 12 -88 16 -34 3 -69 12 -77 18
-8 6 -16 9 -18 8 -2 -2 -20 -1 -41 2 -20 4 -50 8 -67 11 -16 2 -43 8 -60 13
-16 5 -35 7 -42 5 -6 -2 -14 1 -18 6 -8 14 -18 14 -33 -1z m788 -182 c36 -8
92 -19 125 -24 33 -5 119 -22 190 -36 117 -24 205 -41 390 -76 33 -6 89 -15
125 -20 36 -5 81 -14 100 -20 19 -6 55 -15 80 -20 114 -21 210 -50 210 -62 0
-4 7 -8 15 -8 8 0 24 -8 35 -17 29 -25 130 -125 130 -129 0 -2 14 -23 30 -47
17 -25 30 -48 30 -51 0 -4 8 -19 17 -33 35 -53 89 -221 96 -298 11 -106 -4
-184 -43 -237 -19 -26 -42 -48 -50 -48 -8 0 -23 -7 -34 -15 -26 -20 -103 -30
-120 -16 -7 6 -15 9 -18 6 -2 -3 -19 0 -38 5 -18 5 -49 12 -69 15 -20 3 -48 8
-61 11 -14 3 -34 7 -45 8 -11 2 -20 4 -20 5 0 3 -12 5 -90 17 -27 4 -54 9 -60
10 -28 8 -127 27 -230 44 -38 7 -92 18 -120 25 -27 7 -70 16 -95 19 -48 7
-154 28 -260 52 -75 17 -98 21 -155 28 -43 5 -64 9 -170 32 -38 8 -92 19 -120
24 -27 4 -79 15 -115 23 -36 9 -81 17 -100 18 -19 2 -40 6 -45 10 -6 4 -37 11
-70 14 -33 4 -67 9 -75 11 -8 2 -42 10 -75 18 -101 24 -168 38 -210 43 -22 2
-76 12 -120 23 -44 10 -100 22 -125 27 -108 21 -206 -47 -241 -168 -7 -24 -16
-49 -20 -55 -5 -6 -9 -46 -10 -90 -2 -80 24 -177 57 -215 8 -8 14 -19 14 -22
0 -24 91 -83 140 -91 19 -3 58 -10 85 -16 28 -6 93 -20 145 -30 52 -10 118
-24 145 -30 28 -6 66 -13 85 -16 73 -11 87 -13 145 -27 53 -13 125 -28 275
-58 25 -4 68 -11 95 -15 54 -7 57 -8 125 -25 25 -6 54 -12 65 -15 11 -2 43 -8
70 -14 28 -6 77 -14 110 -19 33 -5 89 -16 125 -24 93 -22 180 -39 220 -44 19
-2 73 -12 120 -23 77 -17 135 -29 255 -50 22 -4 69 -15 105 -24 36 -9 92 -21
125 -28 33 -6 51 -14 41 -16 -21 -4 -160 19 -266 45 -36 9 -85 18 -110 20 -25
2 -65 10 -90 18 -25 8 -63 16 -85 19 -22 3 -74 12 -115 21 -41 9 -109 22 -150
30 -41 7 -102 19 -135 25 -33 6 -97 17 -143 25 -45 8 -87 17 -93 21 -6 3 -25
8 -42 10 -18 3 -43 6 -57 8 -14 2 -50 10 -80 19 -59 16 -154 33 -235 43 -27 3
-65 12 -84 20 -18 8 -48 14 -65 14 -17 0 -69 9 -116 20 -82 19 -292 60 -317
62 -7 1 -13 4 -13 8 0 3 -10 7 -22 8 -69 5 -153 22 -183 37 -32 15 -105 78
-105 91 0 2 -8 17 -18 31 -57 88 -52 293 10 418 24 47 66 95 84 95 7 0 17 7
22 16 8 14 22 16 88 11 44 -3 90 -8 104 -12 14 -4 52 -11 85 -16 33 -4 75 -13
93 -18 18 -5 33 -10 35 -10 1 0 9 -2 17 -5 8 -3 35 -7 60 -9 25 -2 88 -14 140
-26 52 -13 133 -29 180 -36 89 -14 136 -24 282 -56 48 -10 94 -19 104 -19 9 0
40 -6 68 -14 71 -20 215 -46 252 -46 17 0 50 -7 73 -15 23 -8 70 -17 104 -21
34 -3 82 -12 107 -19 67 -19 196 -45 271 -55 36 -5 84 -13 105 -19 22 -5 61
-12 88 -16 27 -3 57 -10 66 -15 9 -5 41 -12 71 -15 30 -4 81 -14 114 -22 86
-22 219 -22 243 0 10 9 22 17 27 17 11 0 33 29 51 70 34 74 21 239 -31 379
-23 64 -95 191 -124 222 -9 9 -23 27 -31 39 -8 12 -19 27 -25 31 -55 49 -82
69 -92 69 -6 0 -13 3 -15 8 -6 13 -111 50 -158 56 -25 3 -70 10 -100 16 -193
39 -248 50 -275 55 -35 6 -121 22 -185 35 -25 5 -58 12 -75 16 -16 3 -48 10
-70 14 -22 5 -96 18 -164 29 -67 12 -130 25 -140 30 -9 5 -36 11 -61 14 -54 7
-103 17 -109 23 -9 9 57 3 119 -10z m-45 -70 c143 -30 362 -72 445 -86 25 -4
74 -14 110 -23 36 -8 110 -23 165 -32 55 -9 129 -23 165 -31 36 -8 85 -17 110
-20 25 -3 66 -12 92 -19 26 -8 54 -15 62 -15 16 0 102 -37 121 -52 70 -56 148
-157 187 -241 10 -21 24 -52 33 -70 27 -57 55 -188 55 -257 0 -52 -5 -73 -20
-93 -11 -14 -20 -29 -20 -34 0 -17 -74 -34 -125 -29 -43 4 -112 17 -165 30 -8
2 -40 7 -70 11 -30 4 -84 14 -120 22 -36 8 -87 19 -115 24 -27 4 -80 14 -117
22 -38 8 -68 13 -68 10 0 -2 -9 1 -19 6 -18 10 -37 14 -126 26 -22 3 -58 10
-80 15 -22 6 -123 26 -225 45 -102 20 -196 37 -210 40 -14 3 -65 12 -115 21
-49 8 -117 22 -150 30 -33 8 -85 19 -115 24 -30 5 -66 12 -80 15 -14 3 -36 8
-50 10 -14 2 -38 6 -55 9 -16 3 -57 12 -90 20 -33 8 -74 15 -92 16 -17 0 -34
4 -37 9 -3 5 -16 9 -28 9 -22 1 -120 19 -218 40 -81 18 -194 37 -217 36 -13
-1 -23 3 -23 9 0 17 189 -8 370 -50 36 -8 90 -18 120 -22 30 -3 61 -10 67 -14
7 -5 34 -10 60 -13 27 -3 63 -10 80 -15 29 -9 189 -42 268 -55 84 -14 151 -28
160 -34 6 -3 26 -7 45 -9 19 -1 62 -8 95 -16 58 -13 109 -23 170 -32 17 -2 37
-6 45 -9 8 -3 42 -10 75 -14 33 -5 101 -17 150 -28 50 -11 113 -23 140 -26 28
-4 88 -16 135 -26 207 -45 237 -50 266 -50 17 0 57 -9 89 -20 32 -11 72 -20
89 -20 17 0 53 -7 80 -15 75 -23 148 -20 178 8 39 34 54 112 38 201 -15 90
-45 179 -75 231 -14 22 -29 52 -36 68 -6 15 -15 27 -20 27 -5 0 -9 5 -9 11 0
29 -137 155 -175 162 -11 2 -33 10 -50 16 -16 7 -59 17 -95 21 -36 5 -72 11
-80 14 -8 3 -42 10 -75 15 -33 5 -69 11 -80 14 -55 14 -116 27 -175 37 -155
25 -178 30 -205 40 -16 6 -63 15 -104 20 -42 6 -96 14 -121 19 -153 33 -175
38 -175 41 0 1 -22 4 -50 7 -27 2 -68 11 -90 18 l-40 14 35 1 c19 0 67 -6 105
-14z m-1247 -524 c-44 -21 -138 -101 -138 -117 0 -7 -7 -18 -15 -25 -8 -7 -15
-19 -15 -27 0 -8 -9 -35 -21 -60 -17 -37 -21 -67 -22 -167 -1 -105 2 -127 21
-170 12 -27 22 -54 22 -61 0 -7 7 -15 15 -19 8 -3 15 -11 15 -19 0 -14 48 -61
95 -93 17 -11 66 -28 110 -37 44 -10 117 -27 161 -37 45 -11 92 -20 104 -20
12 0 52 -7 89 -15 36 -8 104 -22 151 -30 47 -8 123 -24 170 -35 93 -21 187
-39 265 -51 87 -13 120 -20 130 -30 5 -5 21 -9 36 -9 15 0 56 -6 91 -14 35 -8
83 -17 108 -20 25 -3 74 -12 110 -20 115 -25 174 -37 225 -45 28 -4 86 -15
130 -25 44 -9 101 -22 126 -27 25 -6 73 -14 105 -19 32 -5 84 -16 114 -25 30
-8 69 -15 86 -15 17 0 51 -7 74 -15 91 -32 165 -8 111 37 l-23 18 25 0 c43 0
47 -68 6 -91 -13 -7 -37 -5 -81 7 -35 9 -79 18 -98 20 -39 5 -113 19 -210 41
-36 8 -87 19 -115 23 -27 5 -57 10 -65 13 -33 9 -67 17 -95 21 -16 3 -41 7
-55 10 -14 3 -54 10 -90 17 -36 6 -93 17 -127 25 -34 8 -75 14 -90 14 -15 0
-66 9 -113 20 -110 27 -165 38 -220 45 -25 3 -81 14 -125 25 -76 17 -122 27
-280 56 -38 7 -113 22 -165 34 -52 11 -120 25 -150 30 -30 5 -71 13 -90 19
-19 5 -59 12 -89 15 -29 4 -58 9 -62 12 -12 7 -44 14 -99 23 -47 8 -83 23
-114 50 -48 41 -96 96 -96 108 0 7 -3 13 -8 13 -8 0 -19 26 -45 105 -22 64
-22 212 -2 280 20 65 38 105 47 105 5 0 8 8 8 17 0 18 41 83 52 83 4 0 24 16
45 35 29 26 47 35 73 35 l35 -1 -37 -17z"/>
<path d="M1473 3380 c-41 -17 -57 -85 -29 -122 16 -21 87 -48 128 -48 16 0 66
-9 111 -19 45 -11 120 -27 167 -36 47 -8 128 -25 180 -36 200 -43 228 -49 350
-70 69 -11 148 -27 175 -34 73 -19 207 -45 235 -45 13 0 60 -9 105 -19 44 -11
125 -27 180 -37 177 -30 305 -74 318 -109 4 -8 13 -15 22 -15 8 0 15 -7 15
-15 0 -8 5 -15 10 -15 6 0 10 -7 10 -15 0 -18 -13 -19 -60 -5 -19 6 -60 15
-90 19 -30 5 -73 14 -95 19 -22 6 -60 13 -85 15 -25 3 -74 13 -110 22 -36 8
-85 20 -110 26 -25 6 -61 13 -80 15 -19 2 -46 7 -60 11 -14 3 -34 7 -45 8 -11
2 -40 7 -65 13 -62 15 -151 31 -235 43 -38 6 -77 15 -87 20 -9 5 -52 14 -95
19 -43 6 -94 14 -113 19 -77 20 -228 50 -280 57 -30 3 -59 10 -65 14 -5 4 -30
10 -55 13 -25 3 -55 8 -67 11 -43 11 -68 16 -113 22 -25 4 -56 10 -69 15 -13
5 -38 11 -55 14 -17 2 -52 6 -77 10 -50 6 -99 -9 -99 -32 0 -7 -4 -13 -10 -13
-13 0 -13 -43 1 -74 6 -13 25 -31 43 -39 32 -16 157 -43 261 -58 33 -4 76 -13
95 -19 19 -5 48 -10 65 -10 16 0 75 -12 130 -25 55 -14 150 -34 210 -45 61
-11 121 -22 135 -25 14 -3 48 -9 75 -14 28 -6 91 -19 140 -30 135 -30 181 -39
285 -56 129 -21 136 -22 205 -38 33 -8 103 -22 155 -31 52 -9 115 -21 140 -26
25 -4 70 -13 100 -19 30 -5 82 -15 115 -22 78 -15 106 -14 160 7 59 22 85 63
85 136 0 32 -6 62 -15 74 -8 10 -15 26 -15 35 0 8 -16 33 -35 55 -19 21 -35
42 -35 47 0 4 -6 7 -14 7 -8 0 -16 6 -19 14 -6 15 -117 82 -129 78 -5 -1 -8 2
-8 7 0 5 -17 11 -37 14 -21 2 -49 8 -63 11 -14 4 -56 11 -94 17 -38 5 -83 13
-100 18 -17 5 -58 14 -91 21 -33 6 -69 14 -80 16 -11 3 -43 10 -71 14 -60 9
-235 43 -294 57 -8 2 -44 8 -79 13 -35 6 -68 13 -73 16 -6 4 -34 9 -62 11 -43
3 -76 10 -141 29 -5 2 -25 6 -42 9 -18 3 -45 7 -60 10 -16 3 -55 10 -88 16
-54 9 -145 29 -310 64 -106 24 -169 28 -202 15z m123 -41 c24 -6 47 -16 50
-21 4 -6 -1 -8 -12 -4 -18 5 -47 11 -105 22 -33 6 -57 -19 -40 -40 10 -12 86
-33 93 -25 2 1 13 -3 25 -9 12 -7 50 -16 85 -21 35 -6 95 -17 134 -25 39 -9
88 -18 110 -22 21 -3 43 -8 47 -11 5 -3 33 -7 64 -9 30 -3 74 -11 97 -19 22
-8 50 -15 61 -15 10 0 58 -9 105 -19 80 -18 155 -34 225 -47 17 -3 98 -19 180
-36 83 -17 175 -34 206 -38 58 -8 100 -16 224 -45 39 -10 86 -20 105 -24 98
-20 131 -36 190 -93 33 -31 60 -64 60 -72 0 -8 5 -18 10 -21 6 -3 10 -17 10
-30 0 -17 -8 -26 -29 -33 -16 -6 -31 -9 -33 -7 -2 2 -41 9 -88 15 -46 6 -91
16 -100 20 -25 16 42 12 125 -7 66 -14 78 -14 90 -2 12 12 12 17 0 39 -8 14
-18 34 -23 45 -10 20 -67 75 -78 75 -3 0 -16 8 -29 18 -24 19 -141 49 -346 87
-41 8 -92 18 -114 24 -22 5 -60 11 -85 12 -25 1 -49 5 -55 9 -5 4 -17 8 -25 8
-8 0 -33 5 -55 11 -22 5 -96 20 -165 32 -69 12 -132 26 -141 30 -9 4 -38 9
-65 10 -27 1 -53 5 -59 9 -10 7 -95 26 -150 34 -16 2 -41 7 -55 10 -14 4 -47
9 -75 12 -27 3 -79 14 -115 24 -36 10 -83 21 -105 23 -22 3 -51 9 -65 12 -14
4 -54 11 -89 16 -100 14 -153 55 -121 94 15 18 65 19 126 4z m-136 -253 c51
-15 133 -32 230 -47 36 -6 79 -14 95 -20 33 -10 156 -34 254 -50 36 -6 72 -14
80 -19 9 -4 43 -11 76 -15 58 -6 101 -14 290 -55 136 -29 233 -48 300 -60 33
-6 67 -13 75 -14 21 -5 163 -30 172 -30 4 -1 13 -7 20 -14 11 -11 9 -12 -12
-8 -14 3 -38 8 -55 10 -16 3 -41 8 -55 11 -25 6 -49 11 -105 20 -16 3 -41 8
-55 11 -14 3 -57 12 -96 19 -39 7 -89 18 -110 24 -22 5 -55 12 -74 15 -38 5
-165 29 -275 51 -38 8 -86 16 -105 19 -32 4 -110 22 -200 46 -19 5 -60 12 -90
15 -30 3 -64 8 -75 10 -11 2 -23 5 -27 5 -4 0 -26 7 -49 15 -23 8 -56 15 -73
15 -17 0 -51 6 -76 14 -25 8 -72 16 -103 20 -32 3 -65 9 -75 14 -24 12 -36 10
-55 -10 -13 -12 -14 -18 -4 -25 15 -12 125 -42 192 -53 119 -20 276 -49 311
-59 22 -5 77 -17 124 -26 104 -20 157 -32 190 -41 14 -3 52 -10 85 -14 33 -4
71 -10 85 -14 14 -3 51 -11 83 -17 33 -5 71 -15 85 -21 15 -5 52 -14 82 -18
79 -12 231 -38 258 -45 42 -10 67 -15 102 -21 19 -3 62 -11 95 -19 169 -38
215 -48 265 -55 30 -5 73 -13 95 -19 22 -6 74 -11 116 -11 82 0 97 8 118 62
16 44 -15 124 -73 186 -37 40 -121 97 -156 106 -14 4 -34 11 -45 16 -21 8
-153 36 -245 50 -30 5 -68 14 -85 19 -28 10 -27 11 15 7 133 -13 316 -53 373
-82 16 -8 34 -14 41 -14 27 0 166 -129 166 -154 0 -8 7 -19 16 -24 9 -5 17
-29 21 -63 5 -49 3 -58 -22 -87 -35 -42 -86 -55 -156 -41 -30 6 -74 13 -99 16
-25 3 -67 11 -95 18 -27 8 -66 15 -85 16 -19 2 -39 6 -45 10 -5 3 -17 7 -25 7
-8 0 -26 3 -40 7 -30 7 -50 11 -115 21 -27 4 -57 9 -65 11 -8 2 -33 6 -55 9
-22 3 -70 14 -106 25 -36 10 -77 19 -90 19 -31 0 -179 28 -244 46 -27 8 -68
16 -90 19 -22 3 -71 12 -110 19 -38 8 -95 19 -125 25 -30 5 -98 19 -150 31
-52 12 -111 23 -130 26 -36 5 -119 22 -245 49 -73 16 -106 22 -152 29 -46 6
-55 10 -75 29 -21 20 -23 47 -5 66 14 15 114 8 187 -13z"/>
<path d="M1445 2603 c-93 -16 -157 -56 -185 -119 -23 -50 -24 -65 -8 -134 8
-37 23 -63 53 -95 41 -43 117 -85 152 -85 10 0 50 -9 88 -19 39 -11 93 -23
120 -27 28 -4 52 -9 55 -9 3 -1 25 -5 50 -9 25 -4 81 -16 125 -26 92 -21 176
-37 255 -50 30 -5 66 -12 80 -15 14 -3 39 -9 55 -11 17 -3 62 -13 100 -21 39
-9 90 -19 115 -23 68 -11 167 -29 250 -48 41 -8 98 -19 125 -23 28 -4 91 -17
140 -28 50 -11 110 -24 135 -30 50 -11 156 -29 240 -41 30 -4 71 -13 90 -20
19 -6 62 -15 95 -20 33 -4 71 -11 85 -15 67 -18 70 -18 100 14 51 53 31 138
-32 143 -16 1 -28 5 -28 9 0 3 -6 6 -12 6 -7 0 -42 6 -78 12 -182 34 -228 43
-265 53 -22 6 -65 14 -95 19 -63 9 -177 32 -267 54 -34 8 -76 15 -95 15 -18 0
-53 7 -78 16 -25 9 -63 18 -85 20 -40 5 -58 8 -105 19 -14 3 -52 10 -85 15
-83 14 -104 18 -113 24 -5 3 -31 8 -58 11 -27 3 -60 9 -74 12 -14 3 -32 8 -40
10 -8 2 -40 8 -70 12 -30 5 -82 16 -115 24 -33 8 -82 19 -110 23 -27 4 -52 8
-55 9 -3 1 -25 5 -50 9 -25 5 -54 10 -65 13 -11 3 -26 5 -32 5 -7 1 -13 4 -13
8 0 4 -6 7 -12 8 -29 2 -145 21 -168 27 -14 4 -41 10 -61 14 -70 12 -114 67
-71 90 21 11 58 8 187 -19 55 -11 129 -25 165 -30 36 -6 79 -15 95 -21 17 -6
55 -14 85 -19 30 -4 66 -11 80 -14 14 -4 53 -11 88 -17 35 -5 72 -14 83 -20
11 -6 50 -14 87 -19 37 -5 87 -13 112 -19 64 -15 206 -42 267 -51 28 -5 57
-11 63 -15 6 -4 39 -11 73 -16 110 -16 132 -20 152 -29 11 -5 43 -11 70 -14
52 -6 106 -16 242 -47 45 -11 95 -19 112 -19 16 0 42 -5 56 -10 15 -6 59 -15
98 -21 40 -5 95 -16 122 -24 89 -24 196 -39 203 -29 4 6 15 13 24 17 24 8 33
69 16 104 -17 37 -50 48 -214 73 -34 5 -73 14 -87 19 -14 6 -43 12 -64 15 -36
5 -48 7 -105 22 -21 5 -43 8 -120 19 -15 1 -31 6 -36 9 -5 3 -41 10 -80 16
-39 5 -90 16 -114 24 -24 8 -69 17 -101 20 -32 3 -66 10 -77 16 -10 5 -34 10
-52 10 -18 0 -66 9 -106 20 -39 11 -92 20 -116 20 -24 0 -59 6 -77 14 -19 8
-54 16 -79 19 -53 6 -99 15 -120 23 -8 4 -33 8 -55 11 -22 3 -65 11 -96 19
-31 8 -69 14 -84 14 -15 0 -46 5 -69 11 -97 25 -113 29 -146 34 -19 3 -39 7
-45 9 -32 10 -65 16 -105 20 -25 3 -56 8 -70 11 -14 3 -36 8 -50 10 -14 3 -52
10 -85 16 -87 15 -88 15 -110 12z m125 -47 c41 -8 109 -22 150 -31 41 -9 84
-18 95 -20 19 -3 122 -22 250 -46 33 -6 96 -19 140 -30 44 -10 98 -21 120 -24
41 -4 82 -12 240 -44 50 -11 131 -26 180 -35 80 -15 161 -32 315 -67 25 -6 68
-13 95 -16 28 -3 74 -12 103 -20 30 -8 77 -19 105 -24 29 -5 81 -13 117 -20
36 -6 101 -19 145 -29 44 -10 103 -21 130 -24 28 -2 67 -12 88 -20 30 -14 37
-21 37 -45 0 -34 -16 -49 -50 -46 -99 9 -164 21 -320 56 -25 6 -81 17 -125 24
-44 8 -100 18 -125 23 -25 6 -78 16 -118 23 -40 7 -75 16 -78 21 -3 4 -24 8
-47 8 -23 0 -62 5 -87 11 -25 6 -76 17 -115 25 -38 8 -74 15 -80 17 -23 8 -63
16 -100 21 -22 2 -62 9 -90 14 -137 29 -171 36 -177 34 -5 -1 -8 2 -8 6 0 4
-10 8 -22 8 -13 1 -39 4 -58 8 -19 4 -42 8 -50 10 -8 1 -26 5 -40 9 -14 3 -43
8 -65 11 -22 3 -71 12 -110 20 -96 22 -204 44 -240 50 -27 4 -62 12 -90 20
-16 5 -77 15 -115 20 -19 2 -56 8 -81 11 -36 6 -52 3 -73 -10 -43 -28 -49 -49
-26 -88 21 -35 44 -50 95 -63 17 -4 35 -8 40 -10 6 -2 21 -5 34 -8 42 -9 37
-18 -9 -15 -58 4 -131 32 -164 62 -21 19 -26 34 -26 70 0 60 29 82 110 82 60
0 169 -13 184 -22 15 -10 194 -46 401 -82 72 -13 96 -18 155 -30 25 -6 79 -17
120 -25 41 -8 111 -23 155 -32 44 -9 105 -20 135 -24 60 -8 131 -23 225 -47
33 -8 83 -17 110 -20 28 -2 64 -8 80 -13 17 -6 57 -14 90 -19 33 -5 69 -12 80
-15 19 -6 56 -13 200 -41 39 -7 115 -23 170 -34 55 -11 123 -23 150 -27 28 -3
55 -9 60 -13 15 -10 59 -12 73 -3 31 20 -21 62 -77 62 -15 0 -50 7 -77 15 -27
8 -65 15 -84 15 -36 0 -100 14 -135 30 -16 7 -117 22 -145 22 -3 0 -12 4 -20
8 -8 4 -42 11 -74 15 -33 3 -78 12 -100 20 -23 7 -68 15 -100 18 -32 3 -64 11
-69 16 -6 6 -26 11 -45 11 -18 0 -72 9 -120 19 -109 24 -193 41 -257 51 -27 5
-61 12 -75 15 -14 4 -31 7 -37 7 -7 1 -13 4 -13 8 0 3 -21 7 -47 9 -26 1 -50
4 -55 7 -12 7 -46 14 -103 20 -27 3 -77 12 -110 20 -33 8 -76 17 -95 20 -19 2
-57 11 -85 19 -27 8 -70 16 -95 18 -25 1 -50 5 -55 9 -6 3 -41 11 -80 18 -63
11 -84 15 -135 27 -105 24 -198 7 -236 -42 -46 -60 -49 -88 -18 -151 33 -69
96 -110 194 -128 8 -2 26 -5 40 -9 14 -3 63 -13 110 -22 47 -9 114 -24 150
-32 36 -9 90 -19 120 -23 30 -5 73 -13 95 -18 22 -6 54 -13 70 -15 17 -3 48
-10 70 -16 22 -5 58 -13 80 -16 43 -6 117 -18 125 -20 30 -9 61 -15 90 -19 19
-3 60 -12 90 -20 30 -7 82 -17 115 -22 33 -4 62 -8 65 -9 3 -1 23 -5 45 -8 65
-11 185 -37 255 -54 58 -14 164 -34 260 -48 64 -10 145 -27 168 -36 13 -5 38
-9 57 -9 18 0 45 -4 60 -10 36 -14 137 -29 152 -23 19 7 16 41 -4 46 -10 3
-43 10 -73 17 -30 6 -84 18 -120 25 -36 8 -90 19 -120 25 -30 6 -62 12 -70 14
-8 2 -37 6 -65 10 -27 4 -65 12 -84 18 -19 6 -59 14 -90 18 -45 6 -230 43
-276 54 -16 4 -109 19 -115 18 -3 0 -12 4 -21 9 -9 5 -36 11 -60 15 -69 10
-84 12 -89 15 -3 1 -9 3 -15 3 -22 3 -144 29 -201 42 -33 8 -71 14 -83 14 -13
0 -51 7 -85 16 -72 19 -189 43 -266 54 -30 4 -81 15 -113 24 -32 9 -68 16 -81
16 -13 0 -39 7 -57 15 l-34 16 40 -4 c44 -5 116 -19 245 -48 47 -10 98 -19
112 -19 14 0 45 -7 68 -15 23 -8 54 -15 69 -15 14 0 62 -8 106 -19 115 -28
209 -46 283 -55 24 -3 48 -8 53 -12 9 -5 71 -17 234 -44 39 -7 108 -21 155
-31 47 -10 96 -20 110 -22 14 -1 30 -5 35 -9 6 -3 33 -9 60 -13 57 -8 164 -27
310 -56 255 -51 257 -52 268 -76 7 -17 7 -30 -2 -49 -11 -25 -14 -26 -69 -19
-31 4 -61 11 -66 16 -6 5 -26 9 -46 9 -19 0 -51 5 -70 11 -19 6 -60 14 -90 19
-30 4 -91 15 -134 24 -44 9 -93 19 -110 21 -32 5 -55 10 -209 45 -49 11 -102
20 -118 20 -17 0 -39 5 -50 11 -12 6 -42 13 -67 15 -26 3 -58 7 -72 11 -14 3
-29 7 -35 8 -5 1 -12 3 -15 4 -6 3 -21 5 -95 17 -27 4 -54 9 -60 10 -35 10
-103 24 -190 39 -55 9 -127 23 -160 31 -62 15 -198 42 -250 50 -16 2 -41 7
-55 11 -29 7 -35 8 -120 23 -36 7 -75 16 -86 20 -12 5 -43 11 -70 15 -59 8
-114 26 -114 37 0 4 -7 8 -15 8 -36 0 -101 90 -106 145 -6 86 34 145 118 171
52 16 85 16 173 0z"/>
</g>
</svg>
